<svg width="534" height="507" viewBox="0 0 534 507" fill="none" xmlns="http://www.w3.org/2000/svg">
<path d="M66.6667 240C48 240 32.2222 233.556 19.3333 220.667C6.44444 207.778 0 192 0 173.333C0 154.667 6.44444 138.889 19.3333 126C32.2222 113.111 48 106.667 66.6667 106.667C85.3333 106.667 101.111 113.111 114 126C126.889 138.889 133.333 154.667 133.333 173.333C133.333 192 126.889 207.778 114 220.667C101.111 233.556 85.3333 240 66.6667 240ZM186.667 133.333C168 133.333 152.222 126.889 139.333 114C126.444 101.111 120 85.3333 120 66.6667C120 48 126.444 32.2222 139.333 19.3333C152.222 6.44444 168 0 186.667 0C205.333 0 221.111 6.44444 234 19.3333C246.889 32.2222 253.333 48 253.333 66.6667C253.333 85.3333 246.889 101.111 234 114C221.111 126.889 205.333 133.333 186.667 133.333ZM346.667 133.333C328 133.333 312.222 126.889 299.333 114C286.444 101.111 280 85.3333 280 66.6667C280 48 286.444 32.2222 299.333 19.3333C312.222 6.44444 328 0 346.667 0C365.333 0 381.111 6.44444 394 19.3333C406.889 32.2222 413.333 48 413.333 66.6667C413.333 85.3333 406.889 101.111 394 114C381.111 126.889 365.333 133.333 346.667 133.333ZM466.667 240C448 240 432.222 233.556 419.333 220.667C406.444 207.778 400 192 400 173.333C400 154.667 406.444 138.889 419.333 126C432.222 113.111 448 106.667 466.667 106.667C485.333 106.667 501.111 113.111 514 126C526.889 138.889 533.333 154.667 533.333 173.333C533.333 192 526.889 207.778 514 220.667C501.111 233.556 485.333 240 466.667 240ZM124 506.667C104 506.667 87.2222 499 73.6667 483.667C60.1111 468.333 53.3333 450.222 53.3333 429.333C53.3333 406.222 61.2222 386 77 368.667C92.7778 351.333 108.444 334.222 124 317.333C136.889 303.556 148 288.556 157.333 272.333C166.667 256.111 177.778 240.889 190.667 226.667C200.444 215.111 211.778 205.556 224.667 198C237.556 190.444 251.556 186.667 266.667 186.667C281.778 186.667 295.778 190.222 308.667 197.333C321.556 204.444 332.889 213.778 342.667 225.333C355.111 239.556 366.111 254.889 375.667 271.333C385.222 287.778 396.444 303.111 409.333 317.333C424.889 334.222 440.556 351.333 456.333 368.667C472.111 386 480 406.222 480 429.333C480 450.222 473.222 468.333 459.667 483.667C446.111 499 429.333 506.667 409.333 506.667C385.333 506.667 361.556 504.667 338 500.667C314.444 496.667 290.667 494.667 266.667 494.667C242.667 494.667 218.889 496.667 195.333 500.667C171.778 504.667 148 506.667 124 506.667Z" fill="white"/>
</svg>
