<svg width="62" height="52" viewBox="0 0 62 52" fill="none" xmlns="http://www.w3.org/2000/svg">
<path d="M41.3337 15.1661H41.3595M8.78366 38.9995H31.0003C36.4815 38.9995 41.7381 37.1733 45.6139 33.9226C49.4896 30.672 51.667 26.2632 51.667 21.6661V15.1661M51.667 15.1661C51.6728 13.3199 50.9755 11.5204 49.6768 10.0298C48.378 8.53919 46.5457 7.43537 44.4467 6.87919C42.3477 6.32301 40.0918 6.34353 38.0077 6.93777C35.9236 7.532 34.1202 8.6689 32.8603 10.1828L5.16699 43.3328M51.667 15.1661L56.8337 16.2495L51.667 17.3328M25.8337 38.9995V45.4995M36.167 38.4578V45.4995M18.0837 38.9995C21.2692 38.9993 24.3774 38.176 26.9851 36.6415C29.5929 35.107 31.5736 32.9359 32.6577 30.4236C33.7418 27.9113 33.8767 25.1799 33.0439 22.6011C32.2111 20.0222 30.4512 17.7212 28.0037 16.0111" stroke="#11C125" stroke-width="5" stroke-linecap="round" stroke-linejoin="round"/>
</svg>
