<svg width="24" height="24" viewBox="0 0 24 24" fill="none" xmlns="http://www.w3.org/2000/svg">
<path d="M16 7.0008H16.01M3.4 18.0008H12C14.1217 18.0008 16.1566 17.1579 17.6569 15.6577C19.1571 14.1574 20 12.1225 20 10.0008V7.0008M20 7.0008C20.0023 6.14871 19.7323 5.31817 19.2296 4.63019C18.7269 3.94222 18.0175 3.43276 17.205 3.17606C16.3925 2.91936 15.5193 2.92884 14.7125 3.2031C13.9058 3.47736 13.2077 4.00208 12.72 4.7008L2 20.0008M20 7.0008L22 7.5008L20 8.0008M10 18.0008V21.0008M14 17.7508V21.0008M7 18.0008C8.23312 18.0007 9.43627 17.6207 10.4457 16.9125C11.4552 16.2043 12.2219 15.2022 12.6416 14.0427C13.0612 12.8832 13.1134 11.6225 12.7911 10.4323C12.4687 9.24207 11.7874 8.18006 10.84 7.3908" stroke="#11C125" stroke-width="2" stroke-linecap="round" stroke-linejoin="round"/>
</svg>
