<svg width="48" height="45" viewBox="0 0 48 45" fill="none" xmlns="http://www.w3.org/2000/svg">
<path d="M24 20.625V28.125M28 24.375H20M32 11.25V7.5C32 6.50544 31.5786 5.55161 30.8284 4.84835C30.0783 4.14509 29.0609 3.75 28 3.75H20C18.9391 3.75 17.9217 4.14509 17.1716 4.84835C16.4214 5.55161 16 6.50544 16 7.5V11.25M36 11.25V37.5M12 11.25V37.5M8 11.25H40C42.2091 11.25 44 12.9289 44 15V33.75C44 35.8211 42.2091 37.5 40 37.5H8C5.79086 37.5 4 35.8211 4 33.75V15C4 12.9289 5.79086 11.25 8 11.25Z" stroke="#1B6D24" stroke-width="2" stroke-linecap="round" stroke-linejoin="round"/>
</svg>
