<svg width="24" height="24" viewBox="0 0 24 24" fill="none" xmlns="http://www.w3.org/2000/svg">
<path d="M7.99959 13.9998V14.4998M15.9996 13.9998V14.4998M11.9996 4.99978C12.6696 4.99978 13.3496 5.08978 13.9996 5.25978C15.7796 3.25978 19.0296 2.41978 20.4196 2.99978C21.8196 3.57978 19.9996 9.99978 19.9996 9.99978C20.5696 11.0698 20.9996 12.2398 20.9996 13.4398C20.9996 17.8998 16.9696 20.9998 11.9996 20.9998C7.02959 20.9998 2.99959 17.9998 2.99959 13.4398C2.99959 12.1898 3.49959 11.0398 3.99959 9.99978C3.99959 9.99978 2.10959 3.57978 3.49959 2.99978C4.88959 2.41978 8.21959 3.22978 9.99959 5.22978C10.6556 5.07888 11.3264 5.00174 11.9996 4.99978ZM11.2496 16.2498H12.7496L11.9996 16.9998L11.2496 16.2498Z" stroke="black" stroke-opacity="0.75" stroke-width="2" stroke-linecap="round" stroke-linejoin="round"/>
</svg>
