<svg width="31" height="34" viewBox="0 0 31 34" fill="none" xmlns="http://www.w3.org/2000/svg">
<path d="M14.2301 3.98664C14.2855 3.66166 14.4427 3.36814 14.6746 3.15692C14.9065 2.9457 15.1984 2.83008 15.4998 2.83008C15.8013 2.83008 16.0932 2.9457 16.3251 3.15692C16.557 3.36814 16.7142 3.66166 16.7695 3.98664L18.1271 11.8605C18.2235 12.4203 18.4715 12.9352 18.8388 13.338C19.2061 13.7408 19.6756 14.0129 20.186 14.1186L27.3651 15.6076C27.6614 15.6683 27.929 15.8407 28.1216 16.095C28.3142 16.3494 28.4196 16.6695 28.4196 17.0001C28.4196 17.3307 28.3142 17.6509 28.1216 17.9052C27.929 18.1596 27.6614 18.332 27.3651 18.3927L20.186 19.8816C19.6756 19.9874 19.2061 20.2594 18.8388 20.6623C18.4715 21.0651 18.2235 21.58 18.1271 22.1398L16.7695 30.0136C16.7142 30.3386 16.557 30.6321 16.3251 30.8433C16.0932 31.0546 15.8013 31.1702 15.4998 31.1702C15.1984 31.1702 14.9065 31.0546 14.6746 30.8433C14.4427 30.6321 14.2855 30.3386 14.2301 30.0136L12.8726 22.1398C12.7762 21.58 12.5281 21.0651 12.1608 20.6623C11.7936 20.2594 11.3241 19.9874 10.8137 19.8816L3.63459 18.3927C3.33828 18.332 3.07067 18.1596 2.87808 17.9052C2.6855 17.6509 2.58008 17.3307 2.58008 17.0001C2.58008 16.6695 2.6855 16.3494 2.87808 16.095C3.07067 15.8407 3.33828 15.6683 3.63459 15.6076L10.8137 14.1186C11.3241 14.0129 11.7936 13.7408 12.1608 13.338C12.5281 12.9352 12.7762 12.4203 12.8726 11.8605L14.2301 3.98664Z" stroke="#1B6D24" stroke-width="2" stroke-linecap="round" stroke-linejoin="round"/>
</svg>
