<svg width="39" height="38" viewBox="0 0 39 38" fill="none" xmlns="http://www.w3.org/2000/svg">
<path d="M26.0002 12.666C32.5002 12.666 35.7502 9.49935 35.7502 3.16602C29.2502 3.16602 26.0002 6.33268 26.0002 12.666ZM26.0002 12.666C21.9377 19.791 20.9627 24.0343 19.5002 34.8327C19.3129 28.7215 17.7623 22.7233 14.9561 17.2548C12.1499 11.7864 8.15547 6.97875 3.25024 3.16602M28.2915 5.68352C24.9193 3.56987 20.8642 2.74562 16.906 3.36927C12.9478 3.99292 9.36596 6.02044 6.84935 9.06191C4.33274 12.1034 3.05904 15.944 3.27321 19.8453C3.48738 23.7465 5.17429 27.4329 8.00953 30.1954C10.8448 32.958 14.6281 34.6016 18.632 34.8103C22.636 35.019 26.5777 33.7779 29.6992 31.3259C32.8207 28.8738 34.9016 25.3838 35.5416 21.5271C36.1817 17.6703 35.3358 13.7192 33.1665 10.4335" stroke="#1B6D24" stroke-width="2" stroke-linecap="round" stroke-linejoin="round"/>
</svg>
