<svg width="18" height="20" viewBox="0 0 18 20" fill="none" xmlns="http://www.w3.org/2000/svg">
<path d="M17 3.25C17 4.76878 13.3063 6 8.75 6C4.19365 6 0.5 4.76878 0.5 3.25M17 3.25C17 1.73122 13.3063 0.5 8.75 0.5C4.19365 0.5 0.5 1.73122 0.5 3.25M17 3.25V16.0833C17 16.8127 16.1308 17.5122 14.5836 18.0279C13.0365 18.5436 10.938 18.8333 8.75 18.8333C6.56196 18.8333 4.46354 18.5436 2.91637 18.0279C1.36919 17.5122 0.5 16.8127 0.5 16.0833V3.25M0.5 9.66667C0.5 10.396 1.36919 11.0955 2.91637 11.6112C4.46354 12.1269 6.56196 12.4167 8.75 12.4167C10.938 12.4167 13.0365 12.1269 14.5836 11.6112C16.1308 11.0955 17 10.396 17 9.66667" stroke="#000130" stroke-linecap="round" stroke-linejoin="round"/>
</svg>
