<svg width="24" height="24" viewBox="0 0 24 24" fill="none" xmlns="http://www.w3.org/2000/svg">
<path d="M16 14.0009V14.5009M4.41998 11.2479C4.14011 12.3286 3.99898 13.4406 3.99998 14.5569C3.99998 18.7289 7.58198 21.0009 12 21.0009C16.418 21.0009 20 18.7289 20 14.5569C19.995 13.436 19.829 12.3216 19.507 11.2479M7.99998 14.0009V14.5009M8.49998 8.50095C8.11598 9.55095 7.41698 10.5289 6.15598 11.0009C4.22498 11.7229 2.57998 10.7039 2.49998 10.0009C2.38698 9.00695 3.67698 3.47095 6.49998 3.00095C8.42298 2.67995 10.151 3.84595 10.151 5.23595C11.4158 4.91472 12.7425 4.9292 14 5.27795C14 3.88795 15.844 2.67995 17.767 3.00095C20.59 3.47095 21.88 9.00695 21.767 10.0009C21.687 10.7039 20.042 11.7229 18.111 11.0009C16.85 10.5289 16.256 9.55095 15.872 8.50095M11.25 16.2509H12.75L12 17.0009L11.25 16.2509Z" stroke="#002A58" stroke-opacity="0.75" stroke-width="2" stroke-linecap="round" stroke-linejoin="round"/>
</svg>
