<svg width="62" height="53" viewBox="0 0 62 53" fill="none" xmlns="http://www.w3.org/2000/svg">
<path d="M28.609 12.8333C31.5085 12.8333 33.859 10.8559 33.859 8.41667C33.859 5.97741 31.5085 4 28.609 4C25.7095 4 23.359 5.97741 23.359 8.41667C23.359 10.8559 25.7095 12.8333 28.609 12.8333Z" stroke="#11C125" stroke-width="5" stroke-linecap="round" stroke-linejoin="round"/>
<path d="M46.984 21.6667C49.8835 21.6667 52.234 19.6893 52.234 17.25C52.234 14.8107 49.8835 12.8333 46.984 12.8333C44.0845 12.8333 41.734 14.8107 41.734 17.25C41.734 19.6893 44.0845 21.6667 46.984 21.6667Z" stroke="#11C125" stroke-width="5" stroke-linecap="round" stroke-linejoin="round"/>
<path d="M52.234 39.3333C55.1335 39.3333 57.484 37.3559 57.484 34.9167C57.484 32.4774 55.1335 30.5 52.234 30.5C49.3345 30.5 46.984 32.4774 46.984 34.9167C46.984 37.3559 49.3345 39.3333 52.234 39.3333Z" stroke="#11C125" stroke-width="5" stroke-linecap="round" stroke-linejoin="round"/>
<path d="M23.359 21.6667C25.0826 21.6667 26.7893 21.9523 28.3817 22.5072C29.9741 23.0621 31.421 23.8754 32.6397 24.9007C33.8585 25.926 34.8253 27.1432 35.4849 28.4829C36.1445 29.8225 36.484 31.2583 36.484 32.7083V40.4375C36.4832 42.2847 35.6962 44.0706 34.2654 45.4717C32.8345 46.8728 30.8545 47.7965 28.684 48.0755C26.5135 48.3545 24.296 47.9703 22.4331 46.9925C20.5703 46.0147 19.1852 44.5079 18.529 42.7452C17.409 39.7051 15.0465 37.7139 11.4415 36.7717C9.34719 36.2198 7.5569 35.0556 6.39453 33.4896C5.23217 31.9236 4.77453 30.0592 5.10441 28.234C5.4343 26.4087 6.52993 24.7431 8.19304 23.5385C9.85615 22.3339 11.9769 21.6699 14.1715 21.6667H23.359Z" stroke="#11C125" stroke-width="5" stroke-linecap="round" stroke-linejoin="round"/>
</svg>
