<svg width="24" height="24" viewBox="0 0 24 24" fill="none" xmlns="http://www.w3.org/2000/svg">
<path d="M8.3 10.0008C8.17109 10.0078 8.04274 9.97907 7.92916 9.91771C7.81557 9.85635 7.72116 9.76477 7.65637 9.6531C7.59159 9.54143 7.55894 9.41402 7.56205 9.28496C7.56517 9.15589 7.60391 9.0302 7.674 8.92178L11.4 3.00078C11.4585 2.89535 11.5433 2.80683 11.6462 2.74381C11.749 2.68079 11.8663 2.6454 11.9869 2.64108C12.1074 2.63675 12.227 2.66363 12.334 2.71912C12.4411 2.77461 12.532 2.85682 12.598 2.95778L16.3 8.90078C16.373 9.00557 16.4159 9.12833 16.4241 9.25576C16.4323 9.38319 16.4055 9.51044 16.3466 9.62373C16.2877 9.73703 16.1989 9.83205 16.0899 9.89851C15.9808 9.96497 15.8557 10.0003 15.728 10.0008H8.3Z" stroke="#0107F0" stroke-width="2" stroke-linecap="round" stroke-linejoin="round"/>
<path d="M9 14.0008H4C3.44772 14.0008 3 14.4485 3 15.0008V20.0008C3 20.5531 3.44772 21.0008 4 21.0008H9C9.55228 21.0008 10 20.5531 10 20.0008V15.0008C10 14.4485 9.55228 14.0008 9 14.0008Z" stroke="#0107F0" stroke-width="2" stroke-linecap="round" stroke-linejoin="round"/>
<path d="M17.5 21.0008C19.433 21.0008 21 19.4338 21 17.5008C21 15.5678 19.433 14.0008 17.5 14.0008C15.567 14.0008 14 15.5678 14 17.5008C14 19.4338 15.567 21.0008 17.5 21.0008Z" stroke="#0107F0" stroke-width="2" stroke-linecap="round" stroke-linejoin="round"/>
</svg>
