<svg width="39" height="38" viewBox="0 0 39 38" fill="none" xmlns="http://www.w3.org/2000/svg">
<path d="M17.875 3.16602V6.33268M8.125 3.16602V6.33268M8.125 4.74935H6.5C5.63805 4.74935 4.8114 5.08298 4.2019 5.67684C3.59241 6.27071 3.25 7.07616 3.25 7.91602V14.2493C3.25 16.7689 4.27723 19.1853 6.10571 20.9669C7.93419 22.7485 10.4141 23.7493 13 23.7493M13 23.7493C15.5859 23.7493 18.0658 22.7485 19.8943 20.9669C21.7228 19.1853 22.75 16.7689 22.75 14.2493V7.91602C22.75 7.07616 22.4076 6.27071 21.7981 5.67684C21.1886 5.08298 20.362 4.74935 19.5 4.74935H17.875M13 23.7493C13 26.2689 14.0272 28.6853 15.8557 30.4669C17.6842 32.2485 20.1641 33.2493 22.75 33.2493C25.3359 33.2493 27.8158 32.2485 29.6443 30.4669C31.4728 28.6853 32.5 26.2689 32.5 23.7493V18.9993M32.5 18.9993C34.2949 18.9993 35.75 17.5816 35.75 15.8327C35.75 14.0838 34.2949 12.666 32.5 12.666C30.7051 12.666 29.25 14.0838 29.25 15.8327C29.25 17.5816 30.7051 18.9993 32.5 18.9993Z" stroke="#1B6D24" stroke-width="2" stroke-linecap="round" stroke-linejoin="round"/>
</svg>
