<svg width="20" height="16" viewBox="0 0 20 16" fill="none" xmlns="http://www.w3.org/2000/svg">
<path d="M2 16C1.45 16 0.979167 15.8042 0.5875 15.4125C0.195833 15.0208 0 14.55 0 14V2C0 1.45 0.195833 0.979167 0.5875 0.5875C0.979167 0.195833 1.45 0 2 0H8L10 2H18C18.55 2 19.0208 2.19583 19.4125 2.5875C19.8042 2.97917 20 3.45 20 4V14C20 14.55 19.8042 15.0208 19.4125 15.4125C19.0208 15.8042 18.55 16 18 16H2ZM9 13H17V12.45C17 11.7 16.6333 11.1042 15.9 10.6625C15.1667 10.2208 14.2 10 13 10C11.8 10 10.8333 10.2208 10.1 10.6625C9.36667 11.1042 9 11.7 9 12.45V13ZM13 9C13.55 9 14.0208 8.80417 14.4125 8.4125C14.8042 8.02083 15 7.55 15 7C15 6.45 14.8042 5.97917 14.4125 5.5875C14.0208 5.19583 13.55 5 13 5C12.45 5 11.9792 5.19583 11.5875 5.5875C11.1958 5.97917 11 6.45 11 7C11 7.55 11.1958 8.02083 11.5875 8.4125C11.9792 8.80417 12.45 9 13 9Z" fill="#002A58"/>
</svg>
