<svg width="24" height="24" viewBox="0 0 24 24" fill="none" xmlns="http://www.w3.org/2000/svg">
<path d="M14.305 19.53L15.228 19.148M15.228 16.852L14.305 16.469M16.852 15.228L16.469 14.305M16.852 20.772L16.469 21.696M19.148 15.228L19.531 14.305M19.53 21.696L19.148 20.772M2 21C2.00012 19.741 2.29739 18.4997 2.86766 17.3772C3.43792 16.2548 4.26506 15.2827 5.28182 14.5402C6.29858 13.7976 7.47624 13.3056 8.71904 13.104C9.96183 12.9024 11.2347 12.9969 12.434 13.38M20.772 16.852L21.696 16.469M20.772 19.148L21.696 19.531M15 8C15 10.7614 12.7614 13 10 13C7.23858 13 5 10.7614 5 8C5 5.23858 7.23858 3 10 3C12.7614 3 15 5.23858 15 8ZM21 18C21 19.6569 19.6569 21 18 21C16.3431 21 15 19.6569 15 18C15 16.3431 16.3431 15 18 15C19.6569 15 21 16.3431 21 18Z" stroke="#5C5C5C" stroke-width="2" stroke-linecap="round" stroke-linejoin="round"/>
</svg>
