<svg width="19" height="20" viewBox="0 0 19 20" fill="none" xmlns="http://www.w3.org/2000/svg">
<path d="M14 20V17H11V15H14V12H16V15H19V17H16V20H14ZM2 18C1.45 18 0.979167 17.8042 0.5875 17.4125C0.195833 17.0208 0 16.55 0 16V4C0 3.45 0.195833 2.97917 0.5875 2.5875C0.979167 2.19583 1.45 2 2 2H3V0H5V2H11V0H13V2H14C14.55 2 15.0208 2.19583 15.4125 2.5875C15.8042 2.97917 16 3.45 16 4V10.1C15.6667 10.05 15.3333 10.025 15 10.025C14.6667 10.025 14.3333 10.05 14 10.1V8H2V16H9C9 16.3333 9.025 16.6667 9.075 17C9.125 17.3333 9.21667 17.6667 9.35 18H2Z" fill="white"/>
</svg>
