<svg width="68" height="67" viewBox="0 0 68 67" fill="none" xmlns="http://www.w3.org/2000/svg">
<g clip-path="url(#clip0_1735_19556)">
<rect width="68" height="67" rx="33.5" fill="#000130"/>
<path d="M12.2438 39.084L10.0553 36.2637L6.99902 38.2927C6.99902 38.2927 8.39699 39.8652 10.0938 42.0617L12.2438 39.084Z" fill="#B55B52"/>
<path d="M39.5325 39.3119C39.4072 39.596 39.3204 39.7685 39.2144 39.9866L38.9107 40.5953C38.7034 40.996 38.5009 41.3917 38.284 41.7823C37.8598 42.5601 37.4147 43.3244 36.9487 44.0751C36.0118 45.6123 34.9779 47.0816 33.8539 48.4731C32.6627 49.9581 31.3211 51.3018 29.8528 52.4804C29.0405 53.1122 28.1757 53.6656 27.269 54.1341L26.5411 54.474L25.7746 54.7733C25.5191 54.8696 25.2443 54.9407 24.9744 55.0218L24.7719 55.0827L24.4827 55.1486C24.2706 55.1943 24.0633 55.2247 23.8608 55.2501C23.1233 55.3261 22.379 55.2851 21.653 55.1283C21.058 55.0054 20.4753 54.8237 19.9128 54.5856C18.9745 54.1813 18.0767 53.68 17.2325 53.0891C15.7716 52.0525 14.3961 50.8885 13.1206 49.6093C11.8817 48.397 10.7344 47.144 9.63531 45.8657C9.08577 45.2215 8.54104 44.5824 8.01077 43.9229C7.48051 43.2635 6.97435 42.6294 6.4248 41.8939L11.7564 37.5416C12.1709 38.0945 12.6675 38.7286 13.1447 39.3119C13.6219 39.8953 14.1088 40.4938 14.6198 41.067C15.6321 42.2084 16.6685 43.3091 17.7339 44.3186C18.7377 45.2884 19.82 46.1642 20.9685 46.9361C21.4254 47.2437 21.9097 47.5037 22.4147 47.7122C22.8292 47.8796 23.1378 47.8745 23.0462 47.8491H22.998L23.0799 47.8238C23.186 47.7781 23.2872 47.7528 23.3981 47.7071L23.721 47.56L24.0585 47.3825C24.5404 47.1015 24.9985 46.7773 25.4275 46.4136C26.4128 45.551 27.3007 44.5724 28.074 43.4968C28.9197 42.3385 29.6881 41.1199 30.3734 39.8496C30.727 39.2003 31.0596 38.5409 31.3713 37.8713C31.5304 37.5416 31.6846 37.2068 31.8534 36.8568L32.0655 36.3495C32.1281 36.1973 32.2101 35.9995 32.2438 35.9082L39.5325 39.3119Z" fill="#407BFF"/>
<path opacity="0.8" d="M39.5325 39.3119C39.4072 39.596 39.3204 39.7685 39.2144 39.9866L38.9107 40.5953C38.7034 40.996 38.5009 41.3917 38.284 41.7823C37.8598 42.5601 37.4147 43.3244 36.9487 44.0751C36.0118 45.6123 34.9779 47.0816 33.8539 48.4731C32.6627 49.9581 31.3211 51.3018 29.8528 52.4804C29.0405 53.1122 28.1757 53.6656 27.269 54.1341L26.5411 54.474L25.7746 54.7733C25.5191 54.8696 25.2443 54.9407 24.9744 55.0218L24.7719 55.0827L24.4827 55.1486C24.2706 55.1943 24.0633 55.2247 23.8608 55.2501C23.1233 55.3261 22.379 55.2851 21.653 55.1283C21.058 55.0054 20.4753 54.8237 19.9128 54.5856C18.9745 54.1813 18.0767 53.68 17.2325 53.0891C15.7716 52.0525 14.3961 50.8885 13.1206 49.6093C11.8817 48.397 10.7344 47.144 9.63531 45.8657C9.08577 45.2215 8.54104 44.5824 8.01077 43.9229C7.48051 43.2635 6.97435 42.6294 6.4248 41.8939L11.7564 37.5416C12.1709 38.0945 12.6675 38.7286 13.1447 39.3119C13.6219 39.8953 14.1088 40.4938 14.6198 41.067C15.6321 42.2084 16.6685 43.3091 17.7339 44.3186C18.7377 45.2884 19.82 46.1642 20.9685 46.9361C21.4254 47.2437 21.9097 47.5037 22.4147 47.7122C22.8292 47.8796 23.1378 47.8745 23.0462 47.8491H22.998L23.0799 47.8238C23.186 47.7781 23.2872 47.7528 23.3981 47.7071L23.721 47.56L24.0585 47.3825C24.5404 47.1015 24.9985 46.7773 25.4275 46.4136C26.4128 45.551 27.3007 44.5724 28.074 43.4968C28.9197 42.3385 29.6881 41.1199 30.3734 39.8496C30.727 39.2003 31.0596 38.5409 31.3713 37.8713C31.5304 37.5416 31.6846 37.2068 31.8534 36.8568L32.0655 36.3495C32.1281 36.1973 32.2101 35.9995 32.2438 35.9082L39.5325 39.3119Z" fill="white"/>
<path d="M8.57493 35.2994L6.01038 35.2588L5.52832 38.7386C7.16118 39.0526 8.84506 38.8768 10.3875 38.2313L10.3441 37.1002C10.3244 36.6187 10.1299 36.1636 9.80073 35.8286C9.47158 35.4935 9.03285 35.3041 8.57493 35.2994Z" fill="#B55B52"/>
<path d="M2 35.4211L2.49652 37.6176L5.51902 38.7386L6.01072 35.2588L2 35.4211Z" fill="#B55B52"/>
<path d="M32.9815 36.7205C31.8824 41.1438 29.9108 52.3035 32.0656 70.0526H53.2761C53.4834 66.9431 52.1336 52.8767 54.5198 38.2321C54.6203 37.6359 54.6036 37.0243 54.4708 36.4352C54.3381 35.846 54.092 35.2917 53.7478 34.8064C53.4036 34.3211 52.9687 33.9152 52.4697 33.6136C51.9707 33.3121 51.4183 33.1213 50.8465 33.053C50.0222 32.9566 49.1497 32.8754 48.2868 32.8298C45.3223 32.743 42.3554 32.8447 39.4025 33.1341C38.143 33.2606 36.8962 33.5017 35.6762 33.8544C35.0269 34.0399 34.4356 34.4027 33.9624 34.906C33.4892 35.4093 33.1508 36.0352 32.9815 36.7205Z" fill="white"/>
<path d="M47.3137 23.957C46.6726 27.0006 46.3014 30.7898 48.2778 32.829C48.2778 32.829 47.0389 35.9233 41.6495 35.9233C36.7229 35.9233 39.2392 32.829 39.2392 32.829C42.4931 32.0174 42.4256 27.8071 41.9146 25.4332L47.3137 23.957Z" fill="#B55B52"/>
<path d="M41.4031 35.5023L40.2365 36.8566C40.1952 36.9035 40.1667 36.9612 40.154 37.0237C40.1412 37.0862 40.1448 37.1512 40.1642 37.2117L40.5354 38.4089C40.5561 38.476 40.5958 38.5349 40.6492 38.5775C40.7027 38.6201 40.7673 38.6445 40.8343 38.6473L42.0925 38.7132C42.1521 38.7159 42.2113 38.7024 42.2645 38.674C42.3177 38.6455 42.3631 38.6031 42.3961 38.5509L43.1482 37.3893C43.1935 37.3266 43.2181 37.2499 43.2181 37.1711C43.2181 37.0923 43.1935 37.0157 43.1482 36.953L41.9334 35.4972C41.9014 35.4553 41.8609 35.4215 41.8147 35.3985C41.7686 35.3755 41.7181 35.3638 41.6671 35.3643C41.616 35.3648 41.5657 35.3774 41.52 35.4013C41.4743 35.4252 41.4343 35.4597 41.4031 35.5023Z" fill="#407BFF"/>
<path d="M41.1093 38.6377C41.1093 38.6377 39.1811 53.5715 39.1377 56.1737C39.1631 58.6313 39.5301 61.0717 40.2271 63.4174C40.2271 63.4174 41.5528 60.7797 41.7794 56.0621C42.0059 51.3446 41.7312 41.2856 41.8324 38.6377H41.1093Z" fill="#407BFF"/>
<path opacity="0.2" d="M41.9435 25.4382C42.2472 26.8281 42.3918 28.847 41.8037 30.45C42.1894 30.6275 43.7801 29.9833 44.4406 29.542C45.9108 28.5579 46.4797 27.5941 47.0196 25.5397C47.1064 24.9969 47.2028 24.4694 47.3136 23.957L41.9435 25.4382Z" fill="black"/>
<path d="M36.9108 22.4716C37.0884 22.9462 37.3542 23.3786 37.6928 23.7436C38.0314 24.1086 38.4358 24.3987 38.8824 24.597C40.0827 25.1043 40.8588 23.9984 40.666 22.7049C40.4973 21.5433 39.6633 19.8693 38.3907 19.9049C38.1103 19.9215 37.838 20.0098 37.5972 20.162C37.3565 20.3142 37.1545 20.5257 37.0088 20.7784C36.8632 21.0311 36.7781 21.3173 36.761 21.6123C36.7439 21.9072 36.7953 22.2022 36.9108 22.4716Z" fill="#B55B52"/>
<path opacity="0.2" d="M36.9108 22.4716C37.0884 22.9462 37.3542 23.3786 37.6928 23.7436C38.0314 24.1086 38.4358 24.3987 38.8824 24.597C40.0827 25.1043 40.8588 23.9984 40.666 22.7049C40.4973 21.5433 39.6633 19.8693 38.3907 19.9049C38.1103 19.9215 37.838 20.0098 37.5972 20.162C37.3565 20.3142 37.1545 20.5257 37.0088 20.7784C36.8632 21.0311 36.7781 21.3173 36.761 21.6123C36.7439 21.9072 36.7953 22.2022 36.9108 22.4716Z" fill="black"/>
<path d="M41.7892 17.9004C41.5627 19.686 40.5021 21.015 39.4223 20.8628C38.3425 20.7107 37.6532 19.1381 37.8846 17.3475C38.116 15.5569 39.1717 14.2279 40.2515 14.38C41.3313 14.5322 42.0303 16.1098 41.7892 17.9004Z" fill="#263238"/>
<path d="M49.213 20.0009C48.2488 24.059 47.8728 26.4735 45.5541 28.2287C42.0737 30.8715 37.6629 28.1526 37.4797 23.9017C37.311 20.077 38.9259 14.0913 42.9751 13.1275C43.863 12.9114 44.7891 12.9422 45.6622 13.2169C46.5353 13.4916 47.3254 14.0008 47.9548 14.6943C48.5842 15.3878 49.0312 16.2418 49.2518 17.1722C49.4724 18.1027 49.459 19.0775 49.213 20.0009Z" fill="#B55B52"/>
<path d="M42.8109 11.712C40.5019 12.2192 37.947 14.2026 40.15 15.6483C42.353 17.094 47.3134 17.3172 47.3134 17.3172C47.3134 17.3172 45.6744 21.3753 47.9159 23.4703C48.6631 23.0797 47.0675 26.6204 47.0675 26.6204C47.8885 26.3228 48.5755 25.7156 48.9958 24.916C50.3359 24.5558 54.2984 17.8143 51.6567 15.907C51.1554 11.9758 45.9106 11.0069 42.8109 11.712Z" fill="#263238"/>
<path d="M48.3833 22.4454H48.3303L44.8594 20.7714C44.8422 20.7662 44.8262 20.7572 44.8125 20.7449C44.7989 20.7326 44.7879 20.7174 44.7803 20.7003C44.7727 20.6832 44.7687 20.6645 44.7686 20.6456C44.7684 20.6267 44.7721 20.608 44.7795 20.5908C44.7868 20.5735 44.7975 20.5581 44.811 20.5456C44.8245 20.5331 44.8403 20.5238 44.8575 20.5184C44.8747 20.5129 44.8928 20.5114 44.9106 20.5139C44.9284 20.5164 44.9455 20.5229 44.9607 20.533L48.4363 22.2069C48.4661 22.2213 48.4894 22.2475 48.5011 22.2797C48.5128 22.312 48.5121 22.3478 48.499 22.3794C48.4874 22.4006 48.4704 22.418 48.45 22.4296C48.4296 22.4413 48.4065 22.4467 48.3833 22.4454Z" fill="white"/>
<path d="M50.1426 24.8144C49.4759 25.5913 48.5468 26.0629 47.5539 26.1282C46.2475 26.1992 45.9101 24.8854 46.5368 23.739C47.1008 22.7245 48.465 21.4259 49.6412 21.8977C50.8175 22.3694 50.9476 23.8557 50.1426 24.8144Z" fill="#B55B52"/>
<path d="M43.183 20.1077C43.1203 20.4424 42.9082 20.6809 42.7009 20.6454C42.4936 20.6098 42.3779 20.3106 42.4358 19.9758C42.4936 19.641 42.7105 19.4026 42.9178 19.4381C43.1251 19.4736 43.236 19.7729 43.183 20.1077Z" fill="#263238"/>
<path d="M39.2923 19.1438C39.2345 19.4786 39.0176 19.717 38.8103 19.6815C38.603 19.646 38.4873 19.3467 38.5451 19.0119C38.603 18.6771 38.8199 18.4387 39.0272 18.4742C39.2345 18.5097 39.3502 18.809 39.2923 19.1438Z" fill="#263238"/>
<path d="M40.9109 19.9805C40.251 20.8571 39.4826 21.6367 38.626 22.2987C38.7881 22.5208 38.9949 22.7024 39.2316 22.8304C39.4683 22.9585 39.729 23.0298 39.995 23.0393L40.9109 19.9805Z" fill="#A02724"/>
<path d="M40.9215 24.079C40.8976 24.073 40.8768 24.0575 40.8633 24.0358C40.8499 24.0141 40.8448 23.9879 40.8492 23.9624C40.8539 23.9363 40.8681 23.9131 40.8889 23.898C40.9096 23.8828 40.9352 23.8768 40.9601 23.8812C41.3515 23.9567 41.7542 23.9356 42.1365 23.8194C42.5188 23.7032 42.8702 23.4951 43.1631 23.2116C43.1797 23.1928 43.2027 23.1817 43.2271 23.1807C43.2516 23.1798 43.2753 23.1891 43.2932 23.2066C43.3111 23.224 43.3217 23.2483 43.3226 23.274C43.3235 23.2997 43.3147 23.3247 43.298 23.3435C42.9858 23.6558 42.6074 23.8854 42.1942 24.0133C41.7809 24.1411 41.3447 24.1637 40.9215 24.079Z" fill="#263238"/>
<path d="M45.067 19.0218C45.0387 19.0146 45.0124 19.0002 44.9906 18.9798C44.9687 18.9595 44.9519 18.9338 44.9417 18.9051C44.8654 18.6759 44.738 18.4693 44.5703 18.3025C44.4025 18.1358 44.1993 18.0136 43.9776 17.9464C43.9291 17.9354 43.8867 17.9047 43.8596 17.861C43.8326 17.8173 43.823 17.7641 43.833 17.713C43.8434 17.6617 43.8724 17.6167 43.9137 17.5874C43.9551 17.5581 44.0056 17.5467 44.0547 17.5558C44.3422 17.6301 44.6077 17.7784 44.8273 17.9874C45.0469 18.1963 45.2137 18.4594 45.3129 18.7529C45.329 18.8028 45.3265 18.8572 45.3059 18.9052C45.2853 18.9533 45.2482 18.9913 45.202 19.0116C45.1597 19.032 45.1117 19.0356 45.067 19.0218Z" fill="#263238"/>
<path d="M38.294 17.5454C38.2668 17.5392 38.2418 17.5252 38.2217 17.5048C38.1878 17.4671 38.1689 17.4172 38.1689 17.3653C38.1689 17.3134 38.1878 17.2635 38.2217 17.2258C38.4083 16.9788 38.647 16.7809 38.919 16.6479C39.191 16.5149 39.4887 16.4505 39.7884 16.4599C39.8126 16.463 39.8359 16.4711 39.857 16.4838C39.8781 16.4965 39.8966 16.5135 39.9114 16.5338C39.9262 16.5541 39.9371 16.5773 39.9432 16.6021C39.9494 16.6268 39.9509 16.6526 39.9475 16.678C39.9451 16.704 39.9378 16.7293 39.9261 16.7523C39.9143 16.7754 39.8983 16.7958 39.8791 16.8123C39.8598 16.8288 39.8376 16.8411 39.8138 16.8485C39.7899 16.856 39.7649 16.8583 39.7402 16.8555C39.5031 16.8502 39.2681 16.9039 39.0545 17.0123C38.8408 17.1208 38.6546 17.2808 38.511 17.4795C38.4855 17.5125 38.4511 17.5365 38.4123 17.5482C38.3736 17.56 38.3323 17.559 38.294 17.5454Z" fill="#263238"/>
<path d="M43.1102 22.4807C43.015 22.4797 42.9199 22.4712 42.8258 22.4554C42.5999 22.4102 42.3848 22.3183 42.1928 22.1851C42.0008 22.0519 41.8359 21.8799 41.7074 21.6792C41.5431 21.4212 41.4287 21.1315 41.3708 20.8269C41.3129 20.5222 41.3126 20.2086 41.37 19.9038C41.4353 19.3489 41.7044 18.8429 42.1197 18.494C42.535 18.1452 43.0635 17.9812 43.5923 18.0371C44.0479 18.13 44.4501 18.409 44.7106 18.8132C45.0406 19.3353 45.1619 19.9732 45.0481 20.5886C44.9823 21.0909 44.7533 21.5538 44.4001 21.8986C44.0469 22.2435 43.5911 22.4492 43.1102 22.4807ZM43.303 18.2755C42.8815 18.3069 42.4832 18.4907 42.1757 18.7958C41.8682 19.1009 41.6704 19.5085 41.6158 19.9495C41.5125 20.4972 41.6181 21.0657 41.9099 21.5321C42.021 21.7043 42.1634 21.8517 42.3288 21.9658C42.4943 22.0798 42.6796 22.1583 42.874 22.1966C43.337 22.2408 43.7981 22.0925 44.1585 21.7835C44.5189 21.4744 44.75 21.0291 44.8022 20.543C44.9042 19.9946 44.7968 19.426 44.5034 18.9603C44.3927 18.7877 44.2504 18.6401 44.0849 18.526C43.9193 18.4119 43.7338 18.3336 43.5393 18.2958C43.4612 18.2821 43.3822 18.2753 43.303 18.2755Z" fill="white"/>
<path d="M41.4906 20.0561C41.4708 20.0559 41.4512 20.0507 41.4336 20.041C41.416 20.0313 41.4009 20.0174 41.3894 20.0003C41.3111 19.8339 41.1777 19.7034 41.0144 19.6333C40.851 19.5633 40.6689 19.5585 40.5024 19.6198C40.4716 19.632 40.4376 19.6314 40.4072 19.6182C40.3768 19.605 40.3523 19.5802 40.3385 19.5488C40.3254 19.5172 40.3247 19.4814 40.3364 19.4491C40.3481 19.4169 40.3714 19.3907 40.4012 19.3763C40.6218 19.2939 40.8631 19.2966 41.0821 19.3839C41.301 19.4712 41.4834 19.6375 41.5967 19.8532C41.6056 19.8678 41.6117 19.8842 41.6146 19.9013C41.6174 19.9184 41.6171 19.9359 41.6135 19.9529C41.6099 19.9699 41.6032 19.9859 41.5937 20.0002C41.5842 20.0144 41.5721 20.0265 41.5581 20.0358C41.5383 20.0501 41.5146 20.0572 41.4906 20.0561Z" fill="white"/>
<path d="M38.6412 21.4108C38.5443 21.41 38.4477 21.4015 38.352 21.3854C38.1261 21.3402 37.9109 21.2483 37.719 21.1151C37.527 20.9819 37.3621 20.81 37.2336 20.6093C36.9036 20.0872 36.7824 19.4493 36.8962 18.8339C36.9615 18.2793 37.2308 17.7738 37.6462 17.4257C38.0617 17.0777 38.5902 16.9149 39.1185 16.9722C39.3444 17.0154 39.5598 17.106 39.7519 17.2384C39.944 17.3709 40.1089 17.5425 40.2368 17.7433C40.5671 18.2671 40.6883 18.9066 40.5743 19.5237C40.5085 20.0247 40.28 20.4862 39.9277 20.8302C39.5754 21.1741 39.1209 21.3792 38.6412 21.4108ZM38.8292 17.2056C38.4077 17.2369 38.0094 17.4208 37.7019 17.7258C37.3944 18.0309 37.1966 18.4385 37.142 18.8795C37.0905 19.151 37.0903 19.4306 37.1416 19.7022C37.1929 19.9738 37.2946 20.232 37.4409 20.4622C37.5516 20.6348 37.6939 20.7824 37.8594 20.8965C38.0249 21.0106 38.2104 21.0889 38.405 21.1267C38.868 21.1709 39.3291 21.0226 39.6895 20.7135C40.0499 20.4044 40.281 19.9591 40.3332 19.473C40.4368 18.9246 40.3293 18.3554 40.0344 17.8904C39.8092 17.5433 39.4625 17.3044 39.0703 17.2258C38.9906 17.2118 38.91 17.205 38.8292 17.2056Z" fill="white"/>
<path d="M48.5383 32.5508L53.1179 33.1291C53.8773 33.224 54.5752 33.6155 55.0734 34.2261C55.5715 34.8367 55.8336 35.6219 55.8077 36.4263C55.5764 43.9388 54.6315 54.2616 55.3884 70.0526C55.7692 78.0166 61.0574 121.261 61.0574 121.261L50.6401 123.183C45.6657 106.565 42.1797 89.4944 40.2276 72.1933C39.4703 64.6744 39.4445 57.0938 40.1505 49.5694L48.5383 32.5508Z" fill="#407BFF"/>
<path opacity="0.8" d="M48.5383 32.5508L53.1179 33.1291C53.8773 33.224 54.5752 33.6155 55.0734 34.2261C55.5715 34.8367 55.8336 35.6219 55.8077 36.4263C55.5764 43.9388 54.6315 54.2616 55.3884 70.0526C55.7692 78.0166 61.0574 121.261 61.0574 121.261L50.6401 123.183C45.6657 106.565 42.1797 89.4944 40.2276 72.1933C39.4703 64.6744 39.4445 57.0938 40.1505 49.5694L48.5383 32.5508Z" fill="white"/>
<path opacity="0.2" d="M52.2783 42.1377C52.2783 43.2638 53.0978 48.9959 55.1273 52.9525C55.1851 50.2539 55.2767 47.7886 55.3828 45.5262L52.2783 42.1377Z" fill="#407BFF"/>
<path opacity="0.2" d="M32.5678 41.1328C31.9796 42.3147 30.2828 47.3265 29.4199 52.7998C29.8152 52.5107 30.1912 52.2114 30.5528 51.907C31.8854 50.7427 33.109 49.4466 34.2068 48.0366L34.4189 47.7627L32.5678 41.1328Z" fill="#407BFF"/>
<path d="M38.8637 33.042L36.1594 33.3869C34.8631 33.5547 33.666 34.2029 32.7827 35.2151C31.8993 36.2274 31.3875 37.5376 31.3388 38.911C31.0303 47.3417 30.4036 64.1828 30.0613 70.0518C29.5793 78.0107 29.9216 121.26 29.9216 121.26L36.4149 122.457C36.4149 122.457 38.0635 98.6461 40.2472 72.1924C40.8073 64.3409 40.9409 56.4622 40.6473 48.5946L38.8637 33.042Z" fill="#407BFF"/>
<path opacity="0.8" d="M38.8637 33.042L36.1594 33.3869C34.8631 33.5547 33.666 34.2029 32.7827 35.2151C31.8993 36.2274 31.3875 37.5376 31.3388 38.911C31.0303 47.3417 30.4036 64.1828 30.0613 70.0518C29.5793 78.0107 29.9216 121.26 29.9216 121.26L36.4149 122.457C36.4149 122.457 38.0635 98.6461 40.2472 72.1924C40.8073 64.3409 40.9409 56.4622 40.6473 48.5946L38.8637 33.042Z" fill="white"/>
<path d="M41.6582 35.3809C42.2626 36.4014 42.7482 37.4948 43.1044 38.6375C43.1044 38.6375 49.4338 36.3497 49.2072 32.6822C49.2072 32.6822 48.2431 32.0837 47.6646 31.5967C47.6598 31.5967 47.3754 33.9098 41.6582 35.3809Z" fill="#F5F5F5"/>
<path d="M41.6595 35.3808C40.9382 36.2579 40.3333 37.234 39.8614 38.2823C39.0831 37.6665 38.5096 36.8075 38.223 35.8281C37.9365 34.8488 37.9514 33.7991 38.2658 32.8293C38.8308 32.5894 39.4126 32.396 40.0061 32.251C40.0061 32.251 39.5481 34.5945 41.6595 35.3808Z" fill="#F5F5F5"/>
<path d="M55.5183 35.0508C55.8268 35.5022 56.0582 35.8573 56.3185 36.2581L57.056 37.4298C57.5381 38.2144 58.0057 39.0074 58.4588 39.8089C59.3699 41.4169 60.228 43.0604 61.0186 44.7801C61.8353 46.5391 62.5297 48.3582 63.0962 50.223C63.3978 51.2197 63.6362 52.2365 63.8097 53.2665C63.9932 54.3819 64.0755 55.5131 64.0555 56.6449C63.9657 58.7806 63.5741 60.8902 62.8938 62.9045C62.2775 64.7582 61.5165 66.5549 60.6184 68.2764C59.7635 69.9411 58.8221 71.5549 57.7984 73.1106C57.2971 73.885 56.7796 74.6459 56.2462 75.3933C55.981 75.7687 55.7063 76.144 55.4267 76.5143C55.1471 76.8846 54.882 77.2296 54.5349 77.6557L49.4395 73.0041C49.6323 72.7606 49.9216 72.4157 50.1337 72.1012L50.8471 71.1272C51.3292 70.4678 51.7727 69.7982 52.2113 69.0982C53.0769 67.7455 53.8703 66.3433 54.5879 64.898C55.2761 63.5162 55.8518 62.0755 56.3088 60.5914C56.7306 59.2831 56.9598 57.9145 56.9885 56.5333C56.931 55.1877 56.669 53.8604 56.2124 52.602C55.7063 51.1304 55.0922 49.7024 54.3758 48.3309C53.6431 46.9106 52.8284 45.5004 51.9655 44.1257C51.5268 43.4409 51.0737 42.7612 50.6109 42.0966L49.9071 41.1075C49.6757 40.793 49.4251 40.4379 49.2178 40.1893L55.5183 35.0508Z" fill="#407BFF"/>
<path opacity="0.8" d="M55.5183 35.0508C55.8268 35.5022 56.0582 35.8573 56.3185 36.2581L57.056 37.4298C57.5381 38.2144 58.0057 39.0074 58.4588 39.8089C59.3699 41.4169 60.228 43.0604 61.0186 44.7801C61.8353 46.5391 62.5297 48.3582 63.0962 50.223C63.3978 51.2197 63.6362 52.2365 63.8097 53.2665C63.9932 54.3819 64.0755 55.5131 64.0555 56.6449C63.9657 58.7806 63.5741 60.8902 62.8938 62.9045C62.2775 64.7582 61.5165 66.5549 60.6184 68.2764C59.7635 69.9411 58.8221 71.5549 57.7984 73.1106C57.2971 73.885 56.7796 74.6459 56.2462 75.3933C55.981 75.7687 55.7063 76.144 55.4267 76.5143C55.1471 76.8846 54.882 77.2296 54.5349 77.6557L49.4395 73.0041C49.6323 72.7606 49.9216 72.4157 50.1337 72.1012L50.8471 71.1272C51.3292 70.4678 51.7727 69.7982 52.2113 69.0982C53.0769 67.7455 53.8703 66.3433 54.5879 64.898C55.2761 63.5162 55.8518 62.0755 56.3088 60.5914C56.7306 59.2831 56.9598 57.9145 56.9885 56.5333C56.931 55.1877 56.669 53.8604 56.2124 52.602C55.7063 51.1304 55.0922 49.7024 54.3758 48.3309C53.6431 46.9106 52.8284 45.5004 51.9655 44.1257C51.5268 43.4409 51.0737 42.7612 50.6109 42.0966L49.9071 41.1075C49.6757 40.793 49.4251 40.4379 49.2178 40.1893L55.5183 35.0508Z" fill="white"/>
<path d="M49.0197 43.8469C48.864 44.23 48.5863 44.5438 48.2343 44.7346C47.8824 44.9253 47.4782 44.9809 47.0915 44.8919C46.9152 44.8514 46.7498 44.7699 46.6073 44.6534C46.4648 44.537 46.3489 44.3884 46.268 44.2187C46.1871 44.049 46.1434 43.8624 46.1399 43.6725C46.1364 43.4827 46.1733 43.2944 46.2479 43.1216C46.4037 42.7389 46.6817 42.4255 47.0338 42.2356C47.3859 42.0457 47.7899 41.9913 48.1761 42.0817C48.3523 42.1215 48.5177 42.2024 48.6602 42.3183C48.8027 42.4343 48.9186 42.5824 48.9996 42.7518C49.0805 42.9211 49.1243 43.1074 49.1278 43.2969C49.1313 43.4865 49.0944 43.6744 49.0197 43.8469Z" fill="#263238"/>
<path opacity="0.2" d="M49.0197 43.8469C48.864 44.23 48.5863 44.5438 48.2343 44.7346C47.8824 44.9253 47.4782 44.9809 47.0915 44.8919C46.9152 44.8514 46.7498 44.7699 46.6073 44.6534C46.4648 44.537 46.3489 44.3884 46.268 44.2187C46.1871 44.049 46.1434 43.8624 46.1399 43.6725C46.1364 43.4827 46.1733 43.2944 46.2479 43.1216C46.4037 42.7389 46.6817 42.4255 47.0338 42.2356C47.3859 42.0457 47.7899 41.9913 48.1761 42.0817C48.3523 42.1215 48.5177 42.2024 48.6602 42.3183C48.8027 42.4343 48.9186 42.5824 48.9996 42.7518C49.0805 42.9211 49.1243 43.1074 49.1278 43.2969C49.1313 43.4865 49.0944 43.6744 49.0197 43.8469Z" fill="white"/>
<path d="M47.4336 43.0764C47.394 43.0772 47.3552 43.0647 47.3227 43.0409C47.2827 43.0104 47.2558 42.9646 47.2477 42.9133C47.2396 42.862 47.2509 42.8095 47.2793 42.767C50.8658 37.5168 49.8632 32.85 49.8535 32.8044C49.8434 32.778 49.8387 32.7496 49.8399 32.7212C49.8412 32.6927 49.8482 32.6649 49.8606 32.6396C49.8729 32.6142 49.8904 32.592 49.9116 32.5745C49.9329 32.5569 49.9576 32.5443 49.9839 32.5377C50.0102 32.531 50.0376 32.5305 50.0641 32.536C50.0906 32.5415 50.1158 32.5529 50.1377 32.5696C50.1596 32.5862 50.1779 32.6077 50.1913 32.6324C50.2046 32.6572 50.2127 32.6847 50.2151 32.7131C50.2151 32.7587 51.2756 37.5929 47.583 42.9952C47.5667 43.021 47.5444 43.0419 47.5183 43.0561C47.4921 43.0703 47.463 43.0773 47.4336 43.0764Z" fill="#263238"/>
<path d="M34.9292 40.4126C34.882 40.4116 34.8369 40.3925 34.8022 40.3588C34.7676 40.3252 34.7459 40.2793 34.7412 40.23C34.3507 35.0762 36.9442 33.174 37.0551 33.0979C37.0964 33.0698 37.1464 33.0594 37.1948 33.0688C37.2432 33.0783 37.2863 33.1068 37.3154 33.1486C37.3428 33.1924 37.3526 33.2458 37.3427 33.2971C37.3328 33.3485 37.3039 33.3936 37.2623 33.4225C37.2382 33.4225 34.7412 35.2893 35.1172 40.1996C35.1198 40.2512 35.1032 40.3019 35.0707 40.3408C35.0383 40.3797 34.9927 40.4036 34.9436 40.4075L34.9292 40.4126Z" fill="#263238"/>
<path d="M48.4945 43.7106C48.338 44.093 48.0601 44.4063 47.7084 44.5969C47.3567 44.7875 46.9529 44.8436 46.5662 44.7555C46.3895 44.7159 46.2234 44.6349 46.0805 44.5186C45.9375 44.4023 45.8212 44.2537 45.7402 44.0837C45.6591 43.9137 45.6155 43.7267 45.6125 43.5365C45.6094 43.3464 45.6471 43.158 45.7226 42.9852C45.8825 42.6072 46.1622 42.2993 46.5139 42.1143C46.8657 41.9292 47.2675 41.8785 47.6508 41.9707C47.8234 42.0122 47.9852 42.093 48.1248 42.2075C48.2645 42.322 48.3785 42.4673 48.459 42.6332C48.5394 42.7991 48.5843 42.9816 48.5904 43.1677C48.5965 43.3539 48.5638 43.5392 48.4945 43.7106Z" fill="#263238"/>
<path opacity="0.4" d="M48.4945 43.7106C48.338 44.093 48.0601 44.4063 47.7084 44.5969C47.3567 44.7875 46.9529 44.8436 46.5662 44.7555C46.3895 44.7159 46.2234 44.6349 46.0805 44.5186C45.9375 44.4023 45.8212 44.2537 45.7402 44.0837C45.6591 43.9137 45.6155 43.7267 45.6125 43.5365C45.6094 43.3464 45.6471 43.158 45.7226 42.9852C45.8825 42.6072 46.1622 42.2993 46.5139 42.1143C46.8657 41.9292 47.2675 41.8785 47.6508 41.9707C47.8234 42.0122 47.9852 42.093 48.1248 42.2075C48.2645 42.322 48.3785 42.4673 48.459 42.6332C48.5394 42.7991 48.5843 42.9816 48.5904 43.1677C48.5965 43.3539 48.5638 43.5392 48.4945 43.7106Z" fill="white"/>
<path opacity="0.4" d="M47.6845 43.4361C47.602 43.6377 47.4552 43.8026 47.2696 43.9026C47.0839 44.0026 46.871 44.0314 46.6673 43.984C46.575 43.9625 46.4883 43.9197 46.4137 43.8587C46.339 43.7976 46.2783 43.7197 46.2358 43.6308C46.1933 43.5419 46.1702 43.4442 46.1681 43.3447C46.1661 43.2452 46.1851 43.1465 46.2239 43.0557C46.3071 42.8548 46.454 42.6904 46.6394 42.5905C46.8248 42.4906 47.0374 42.4614 47.241 42.5078C47.3333 42.5293 47.42 42.5721 47.4947 42.6332C47.5693 42.6942 47.6301 42.7721 47.6726 42.861C47.7151 42.9499 47.7382 43.0476 47.7402 43.1471C47.7423 43.2466 47.7232 43.3454 47.6845 43.4361Z" fill="white"/>
<path d="M36.395 52.4039C36.346 52.4026 36.2994 52.3812 36.2652 52.3442C36.231 52.3073 36.2118 52.2577 36.2119 52.2061C36.2112 52.1803 36.2155 52.1547 36.2244 52.1308C36.2333 52.1068 36.2467 52.0849 36.2638 52.0665C36.2809 52.0481 36.3013 52.0334 36.3238 52.0234C36.3464 52.0134 36.3706 52.0082 36.395 52.0083C36.7487 51.9973 37.0863 51.8504 37.3439 51.5952C37.6015 51.34 37.7613 50.9942 37.793 50.6234L38.1497 44.029C38.1797 43.5664 38.1184 43.1023 37.9697 42.6658C37.821 42.2293 37.5881 41.8299 37.2857 41.4926C36.9833 41.1553 36.6179 40.8875 36.2124 40.706C35.807 40.5244 35.3702 40.4331 34.9296 40.4376C34.0026 40.4494 33.1139 40.8281 32.4403 41.4983C31.7668 42.1686 31.3578 43.0812 31.2949 44.0544L30.9333 50.6488C30.9205 50.825 30.9429 51.002 30.9989 51.1686C31.0549 51.3352 31.1434 51.4876 31.2587 51.616C31.374 51.7445 31.5135 51.8462 31.6684 51.9146C31.8232 51.9831 31.9899 52.0167 32.1578 52.0133C32.2076 52.0133 32.2554 52.0342 32.2907 52.0713C32.326 52.1084 32.3458 52.1587 32.3458 52.2112C32.3445 52.2632 32.3243 52.3128 32.2893 52.3496C32.2543 52.3864 32.2072 52.4077 32.1578 52.409C31.9394 52.4109 31.7231 52.3654 31.5223 52.2752C31.3215 52.1851 31.1405 52.0523 30.9907 51.8851C30.8409 51.718 30.7256 51.5201 30.6518 51.3039C30.5781 51.0877 30.5475 50.8577 30.5621 50.6285L30.9237 44.0341C30.9927 42.9613 31.4433 41.9552 32.1857 41.2163C32.9281 40.4774 33.9078 40.0599 34.9296 40.047C35.4215 40.0423 35.909 40.1447 36.3615 40.3477C36.814 40.5508 37.2217 40.8501 37.559 41.227C37.8962 41.6038 38.1558 42.0499 38.3214 42.5374C38.4869 43.0248 38.5548 43.5431 38.5209 44.0595L38.1642 50.6539C38.1316 51.1259 37.9316 51.5678 37.6039 51.8919C37.2762 52.2161 36.8448 52.3988 36.395 52.4039Z" fill="#263238"/>
<path d="M32.4656 52.2062C32.4656 52.5207 32.2969 52.7794 32.1282 52.7794C31.9595 52.7794 31.8293 52.5207 31.8486 52.2062C31.8679 51.8917 32.0173 51.6279 32.1908 51.6279C32.3644 51.6279 32.4849 51.8866 32.4656 52.2062Z" fill="#263238"/>
<path d="M36.7088 52.2062C36.7088 52.5207 36.5401 52.7794 36.3665 52.7794C36.193 52.7794 36.0676 52.5207 36.0869 52.2062C36.1062 51.8917 36.2556 51.6279 36.4292 51.6279C36.6027 51.6279 36.7232 51.8866 36.7088 52.2062Z" fill="#263238"/>
</g>
<defs>
<clipPath id="clip0_1735_19556">
<rect width="68" height="67" rx="33.5" fill="white"/>
</clipPath>
</defs>
</svg>
