<svg width="29" height="26" viewBox="0 0 29 26" fill="none" xmlns="http://www.w3.org/2000/svg">
<path d="M2.23141 4.24922L1.8252 3.95744C3.02077 2.32019 4.70181 1.10125 6.62955 0.47373C8.5573 -0.153789 10.6337 -0.157983 12.564 0.461743L12.4095 0.942332C10.5806 0.356107 8.61353 0.360007 6.78689 0.953485C4.96026 1.54696 3.36656 2.69995 2.23141 4.24922Z" fill="#407BFF"/>
<path d="M0.503474 9.39798H0C0.0258127 8.48417 0.181866 7.57872 0.46343 6.70898L0.944014 6.86346C0.677167 7.68299 0.528819 8.53646 0.503474 9.39798Z" fill="#407BFF"/>
<path d="M27.3995 9.7987C26.9598 8.82774 26.3276 7.95616 25.5411 7.23681C24.7546 6.51746 23.8302 5.96531 22.8239 5.61385C21.8176 5.26238 20.7505 5.11891 19.6871 5.19213C18.6238 5.26536 17.5864 5.55375 16.6378 6.03983C16.1606 5.10872 15.5026 4.28206 14.7023 3.60818C13.9019 2.9343 12.9753 2.42672 11.9765 2.1151C10.9777 1.80348 9.92685 1.69408 8.8853 1.79328C7.84375 1.89249 6.83242 2.19832 5.91043 2.69289C2.09434 4.74111 0.761287 9.59274 2.74657 13.4546L7.89571 23.5069C8.1457 23.9961 8.48977 24.4313 8.90822 24.7873C9.32666 25.1434 9.81125 25.4134 10.3342 25.5819C10.8572 25.7504 11.4083 25.814 11.9559 25.7692C12.5035 25.7243 13.0368 25.5718 13.5254 25.3205L23.6178 20.1714C25.4584 19.2576 26.8773 17.6713 27.5812 15.7407C28.2851 13.81 28.2201 11.6827 27.3995 9.7987Z" fill="#407BFF"/>
</svg>
