<svg width="17" height="20" viewBox="0 0 17 20" fill="none" xmlns="http://www.w3.org/2000/svg">
<path d="M6.35009 13.4393L9.34827 13.544L9.43552 11.0455L11.934 11.1328L12.0387 8.13463L9.54021 8.04738L9.62746 5.5489L6.62929 5.4442L6.54204 7.94268L4.04356 7.85543L3.93886 10.8536L6.43734 10.9409L6.35009 13.4393ZM7.62233 19.9877C5.32744 19.3239 3.46249 17.9288 2.02749 15.8024C0.592491 13.676 -0.0808022 11.347 0.00760986 8.81516L0.220497 2.71888L8.32032 -0.000100881L16.2108 3.27727L15.9979 9.37355C15.9095 11.9053 15.0753 14.1818 13.4955 16.2029C11.9157 18.224 9.95795 19.4856 7.62233 19.9877Z" fill="#1B6D24"/>
</svg>
