<svg width="28" height="38" viewBox="0 0 28 38" fill="none" xmlns="http://www.w3.org/2000/svg">
<path d="M0 38V34H10V30C7.23333 30 4.875 29.025 2.925 27.075C0.975 25.125 0 22.7667 0 20C0 17.9667 0.558333 16.1167 1.675 14.45C2.79167 12.7833 4.3 11.5667 6.2 10.8C6.46667 9.66667 7.05833 8.75 7.975 8.05C8.89167 7.35 9.93333 7 11.1 7L10 3.9L11.9 3.2L11.2 1.4L15 0L15.6 1.9L17.5 1.2L23 16.2L21.1 16.9L21.8 18.8L18 20.2L17.4 18.3L15.5 19L14.3 15.7C13.8 16.1667 13.225 16.5167 12.575 16.75C11.925 16.9833 11.2667 17.0667 10.6 17C9.86667 16.9333 9.18333 16.7083 8.55 16.325C7.91667 15.9417 7.36667 15.4667 6.9 14.9C6 15.4333 5.29167 16.15 4.775 17.05C4.25833 17.95 4 18.9333 4 20C4 21.6667 4.58333 23.0833 5.75 24.25C6.91667 25.4167 8.33333 26 10 26H26V30H16V34H28V38H0ZM17.3 15.1L19.1 14.4L15.7 5L13.8 5.7L17.3 15.1ZM11 14C11.5667 14 12.0417 13.8083 12.425 13.425C12.8083 13.0417 13 12.5667 13 12C13 11.4333 12.8083 10.9583 12.425 10.575C12.0417 10.1917 11.5667 10 11 10C10.4333 10 9.95833 10.1917 9.575 10.575C9.19167 10.9583 9 11.4333 9 12C9 12.5667 9.19167 13.0417 9.575 13.425C9.95833 13.8083 10.4333 14 11 14Z" fill="#A3F69C"/>
</svg>
