<svg width="15" height="14" viewBox="0 0 15 14" fill="none" xmlns="http://www.w3.org/2000/svg">
<g clip-path="url(#clip0_1004_18280)">
<path d="M7.5 1.74724H3.125C2.79348 1.74724 2.47554 1.86995 2.24112 2.08839C2.0067 2.30683 1.875 2.60309 1.875 2.91201V11.0654C1.875 11.3743 2.0067 11.6706 2.24112 11.889C2.47554 12.1075 2.79348 12.2302 3.125 12.2302H11.875C12.2065 12.2302 12.5245 12.1075 12.7589 11.889C12.9933 11.6706 13.125 11.3743 13.125 11.0654V6.98871M11.4844 1.52884C11.733 1.29715 12.0702 1.16699 12.4219 1.16699C12.7735 1.16699 13.1107 1.29715 13.3594 1.52884C13.608 1.76053 13.7477 2.07476 13.7477 2.40242C13.7477 2.73008 13.608 3.04431 13.3594 3.276L7.72625 8.52563C7.57784 8.6638 7.3945 8.76494 7.19312 8.81974L5.3975 9.30894C5.34372 9.32356 5.28671 9.32443 5.23244 9.31148C5.17817 9.29852 5.12864 9.27221 5.08903 9.2353C5.04942 9.19839 5.02118 9.15223 5.00728 9.10166C4.99337 9.0511 4.99431 8.99798 5.01 8.94786L5.535 7.27467C5.59408 7.08717 5.70283 6.91653 5.85125 6.77847L11.4844 1.52884Z" stroke="#11C125" stroke-width="2" stroke-linecap="round" stroke-linejoin="round"/>
</g>
<defs>
<clipPath id="clip0_1004_18280">
<rect width="15" height="13.9773" fill="white"/>
</clipPath>
</defs>
</svg>
