<svg width="16" height="18" viewBox="0 0 16 18" fill="none" xmlns="http://www.w3.org/2000/svg">
<path d="M14.6667 17.5L12.4167 15.25C12.1111 15.4306 11.7917 15.5729 11.4583 15.6771C11.125 15.7812 10.7778 15.8333 10.4167 15.8333C9.375 15.8333 8.48958 15.4688 7.76042 14.7396C7.03125 14.0104 6.66667 13.125 6.66667 12.0833C6.66667 11.0417 7.03125 10.1562 7.76042 9.42708C8.48958 8.69792 9.375 8.33333 10.4167 8.33333C11.4583 8.33333 12.3438 8.69792 13.0729 9.42708C13.8021 10.1562 14.1667 11.0417 14.1667 12.0833C14.1667 12.4444 14.1146 12.7917 14.0104 13.125C13.9062 13.4583 13.7639 13.7778 13.5833 14.0833L15.8333 16.3333L14.6667 17.5ZM10.4167 14.1667C11 14.1667 11.4931 13.9653 11.8958 13.5625C12.2986 13.1597 12.5 12.6667 12.5 12.0833C12.5 11.5 12.2986 11.0069 11.8958 10.6042C11.4931 10.2014 11 10 10.4167 10C9.83333 10 9.34028 10.2014 8.9375 10.6042C8.53472 11.0069 8.33333 11.5 8.33333 12.0833C8.33333 12.6667 8.53472 13.1597 8.9375 13.5625C9.34028 13.9653 9.83333 14.1667 10.4167 14.1667ZM15 7.5H13.3333V3.33333H11.6667V5.83333H3.33333V3.33333H1.66667V15H5.83333V16.6667H1.66667C1.20833 16.6667 0.815972 16.5035 0.489583 16.1771C0.163194 15.8507 0 15.4583 0 15V3.33333C0 2.875 0.163194 2.48264 0.489583 2.15625C0.815972 1.82986 1.20833 1.66667 1.66667 1.66667H5.14583C5.29861 1.18056 5.59722 0.78125 6.04167 0.46875C6.48611 0.15625 6.97222 0 7.5 0C8.05556 0 8.55208 0.15625 8.98958 0.46875C9.42708 0.78125 9.72222 1.18056 9.875 1.66667H13.3333C13.7917 1.66667 14.184 1.82986 14.5104 2.15625C14.8368 2.48264 15 2.875 15 3.33333V7.5ZM7.5 3.33333C7.73611 3.33333 7.93403 3.25347 8.09375 3.09375C8.25347 2.93403 8.33333 2.73611 8.33333 2.5C8.33333 2.26389 8.25347 2.06597 8.09375 1.90625C7.93403 1.74653 7.73611 1.66667 7.5 1.66667C7.26389 1.66667 7.06597 1.74653 6.90625 1.90625C6.74653 2.06597 6.66667 2.26389 6.66667 2.5C6.66667 2.73611 6.74653 2.93403 6.90625 3.09375C7.06597 3.25347 7.26389 3.33333 7.5 3.33333Z" fill="#424750"/>
</svg>
