<svg width="17" height="17" viewBox="0 0 17 17" fill="none" xmlns="http://www.w3.org/2000/svg">
<path d="M0 6.70833C0 5.31944 0.309028 4.04514 0.927083 2.88542C1.54514 1.72569 2.375 0.763889 3.41667 0L4.39583 1.33333C3.5625 1.94444 2.89931 2.71528 2.40625 3.64583C1.91319 4.57639 1.66667 5.59722 1.66667 6.70833H0ZM15 6.70833C15 5.59722 14.7535 4.57639 14.2604 3.64583C13.7674 2.71528 13.1042 1.94444 12.2708 1.33333L13.25 0C14.2917 0.763889 15.1215 1.72569 15.7396 2.88542C16.3576 4.04514 16.6667 5.31944 16.6667 6.70833H15ZM1.66667 14.2083V12.5417H3.33333V6.70833C3.33333 5.55556 3.68056 4.53125 4.375 3.63542C5.06944 2.73958 5.97222 2.15278 7.08333 1.875V1.29167C7.08333 0.944444 7.20486 0.649306 7.44792 0.40625C7.69097 0.163194 7.98611 0.0416667 8.33333 0.0416667C8.68056 0.0416667 8.97569 0.163194 9.21875 0.40625C9.46181 0.649306 9.58333 0.944444 9.58333 1.29167V1.875C10.6944 2.15278 11.5972 2.73958 12.2917 3.63542C12.9861 4.53125 13.3333 5.55556 13.3333 6.70833V12.5417H15V14.2083H1.66667ZM8.33333 16.7083C7.875 16.7083 7.48264 16.5451 7.15625 16.2188C6.82986 15.8924 6.66667 15.5 6.66667 15.0417H10C10 15.5 9.83681 15.8924 9.51042 16.2188C9.18403 16.5451 8.79167 16.7083 8.33333 16.7083ZM5 12.5417H11.6667V6.70833C11.6667 5.79167 11.3403 5.00694 10.6875 4.35417C10.0347 3.70139 9.25 3.375 8.33333 3.375C7.41667 3.375 6.63194 3.70139 5.97917 4.35417C5.32639 5.00694 5 5.79167 5 6.70833V12.5417Z" fill="#424750"/>
</svg>
