<svg width="17" height="14" viewBox="0 0 17 14" fill="none" xmlns="http://www.w3.org/2000/svg">
<path d="M13.3333 7.5V5.83333H16.6667V7.5H13.3333ZM14.3333 13.3333L11.6667 11.3333L12.6667 10L15.3333 12L14.3333 13.3333ZM12.6667 3.33333L11.6667 2L14.3333 0L15.3333 1.33333L12.6667 3.33333ZM2.5 12.5V9.16667H1.66667C1.20833 9.16667 0.815972 9.00347 0.489583 8.67708C0.163194 8.35069 0 7.95833 0 7.5V5.83333C0 5.375 0.163194 4.98264 0.489583 4.65625C0.815972 4.32986 1.20833 4.16667 1.66667 4.16667H5L9.16667 1.66667V11.6667L5 9.16667H4.16667V12.5H2.5ZM7.5 8.70833V4.625L5.45833 5.83333H1.66667V7.5H5.45833L7.5 8.70833ZM10 9.45833V3.875C10.375 4.20833 10.6771 4.61458 10.9062 5.09375C11.1354 5.57292 11.25 6.09722 11.25 6.66667C11.25 7.23611 11.1354 7.76042 10.9062 8.23958C10.6771 8.71875 10.375 9.125 10 9.45833Z" fill="#424750"/>
</svg>
