<svg width="16" height="15" viewBox="0 0 16 15" fill="none" xmlns="http://www.w3.org/2000/svg">
<path d="M7.5 15C6.4625 15 5.4875 14.8031 4.575 14.4094C3.6625 14.0156 2.86875 13.4812 2.19375 12.8062C1.51875 12.1312 0.984375 11.3375 0.590625 10.425C0.196875 9.5125 0 8.5375 0 7.5C0 6.4625 0.196875 5.4875 0.590625 4.575C0.984375 3.6625 1.51875 2.86875 2.19375 2.19375C2.86875 1.51875 3.6625 0.984375 4.575 0.590625C5.4875 0.196875 6.4625 0 7.5 0C9.325 0 10.9219 0.571875 12.2906 1.71563C13.6594 2.85938 14.5125 4.29375 14.85 6.01875H13.3125C13.075 5.10625 12.6469 4.29063 12.0281 3.57188C11.4094 2.85313 10.65 2.3125 9.75 1.95V2.25C9.75 2.6625 9.60312 3.01562 9.30937 3.30938C9.01562 3.60313 8.6625 3.75 8.25 3.75H6.75V5.25C6.75 5.4625 6.67813 5.64062 6.53438 5.78438C6.39062 5.92813 6.2125 6 6 6H4.5V7.5H6V9.75H5.25L1.65 6.15C1.6125 6.375 1.57812 6.6 1.54688 6.825C1.51562 7.05 1.5 7.275 1.5 7.5C1.5 9.1375 2.075 10.5437 3.225 11.7188C4.375 12.8938 5.8 13.4875 7.5 13.5V15ZM14.325 14.625L11.925 12.225C11.6625 12.375 11.3813 12.5 11.0813 12.6C10.7812 12.7 10.4625 12.75 10.125 12.75C9.1875 12.75 8.39062 12.4219 7.73438 11.7656C7.07812 11.1094 6.75 10.3125 6.75 9.375C6.75 8.4375 7.07812 7.64062 7.73438 6.98438C8.39062 6.32812 9.1875 6 10.125 6C11.0625 6 11.8594 6.32812 12.5156 6.98438C13.1719 7.64062 13.5 8.4375 13.5 9.375C13.5 9.7125 13.45 10.0312 13.35 10.3313C13.25 10.6313 13.125 10.9125 12.975 11.175L15.375 13.575L14.325 14.625ZM10.125 11.25C10.65 11.25 11.0938 11.0688 11.4563 10.7063C11.8188 10.3438 12 9.9 12 9.375C12 8.85 11.8188 8.40625 11.4563 8.04375C11.0938 7.68125 10.65 7.5 10.125 7.5C9.6 7.5 9.15625 7.68125 8.79375 8.04375C8.43125 8.40625 8.25 8.85 8.25 9.375C8.25 9.9 8.43125 10.3438 8.79375 10.7063C9.15625 11.0688 9.6 11.25 10.125 11.25Z" fill="#1B6D24"/>
</svg>
