<svg width="17" height="17" viewBox="0 0 17 17" fill="none" xmlns="http://www.w3.org/2000/svg">
<path d="M11.6667 10.8333C10.9722 10.8333 10.3819 10.5903 9.89583 10.1042C9.40972 9.61806 9.16667 9.02778 9.16667 8.33333C9.16667 7.63889 9.40972 7.04861 9.89583 6.5625C10.3819 6.07639 10.9722 5.83333 11.6667 5.83333C12.3611 5.83333 12.9514 6.07639 13.4375 6.5625C13.9236 7.04861 14.1667 7.63889 14.1667 8.33333C14.1667 9.02778 13.9236 9.61806 13.4375 10.1042C12.9514 10.5903 12.3611 10.8333 11.6667 10.8333ZM11.6667 9.16667C11.9028 9.16667 12.1007 9.08681 12.2604 8.92708C12.4201 8.76736 12.5 8.56944 12.5 8.33333C12.5 8.09722 12.4201 7.89931 12.2604 7.73958C12.1007 7.57986 11.9028 7.5 11.6667 7.5C11.4306 7.5 11.2326 7.57986 11.0729 7.73958C10.9132 7.89931 10.8333 8.09722 10.8333 8.33333C10.8333 8.56944 10.9132 8.76736 11.0729 8.92708C11.2326 9.08681 11.4306 9.16667 11.6667 9.16667ZM6.66667 16.6667V14.25C6.66667 13.9583 6.73611 13.684 6.875 13.4271C7.01389 13.1701 7.20833 12.9653 7.45833 12.8125C7.90278 12.5486 8.37153 12.3299 8.86458 12.1562C9.35764 11.9826 9.86111 11.8542 10.375 11.7708L11.6667 13.3333L12.9583 11.7708C13.4722 11.8542 13.9722 11.9826 14.4583 12.1562C14.9444 12.3299 15.4097 12.5486 15.8542 12.8125C16.1042 12.9653 16.3021 13.1701 16.4479 13.4271C16.5938 13.684 16.6667 13.9583 16.6667 14.25V16.6667H6.66667ZM8.3125 15H10.875L9.75 13.625C9.5 13.6944 9.25694 13.7847 9.02083 13.8958C8.78472 14.0069 8.54861 14.125 8.3125 14.25V15ZM12.4583 15H15V14.25C14.7778 14.1111 14.5486 13.9896 14.3125 13.8854C14.0764 13.7812 13.8333 13.6944 13.5833 13.625L12.4583 15ZM1.66667 15C1.20833 15 0.815972 14.8368 0.489583 14.5104C0.163194 14.184 0 13.7917 0 13.3333V1.66667C0 1.20833 0.163194 0.815972 0.489583 0.489583C0.815972 0.163194 1.20833 0 1.66667 0H13.3333C13.7917 0 14.184 0.163194 14.5104 0.489583C14.8368 0.815972 15 1.20833 15 1.66667V5.83333C14.7778 5.55556 14.5347 5.29167 14.2708 5.04167C14.0069 4.79167 13.6944 4.625 13.3333 4.54167V1.66667H1.66667V13.3333H5.125C5.08333 13.4861 5.05208 13.6389 5.03125 13.7917C5.01042 13.9444 5 14.0972 5 14.25V15H1.66667ZM3.33333 5H9.16667C9.52778 4.72222 9.92361 4.51389 10.3542 4.375C10.7847 4.23611 11.2222 4.16667 11.6667 4.16667V3.33333H3.33333V5ZM3.33333 8.33333H7.5C7.5 8.04167 7.53125 7.75694 7.59375 7.47917C7.65625 7.20139 7.74306 6.93056 7.85417 6.66667H3.33333V8.33333ZM3.33333 11.6667H6.20833C6.36111 11.5417 6.52431 11.4306 6.69792 11.3333C6.87153 11.2361 7.04861 11.1458 7.22917 11.0625V10H3.33333V11.6667ZM1.66667 13.3333V1.66667V4.52083C1.66667 4.40972 1.66667 4.32292 1.66667 4.26042C1.66667 4.19792 1.66667 4.16667 1.66667 4.16667C1.66667 4.16667 1.66667 4.57292 1.66667 5.38542C1.66667 6.19792 1.66667 7.18056 1.66667 8.33333C1.66667 8.72222 1.66667 9.11111 1.66667 9.5C1.66667 9.88889 1.66667 10.2778 1.66667 10.6667C1.66667 10.7778 1.66667 10.8958 1.66667 11.0208C1.66667 11.1458 1.66667 11.2639 1.66667 11.375C1.66667 11.6944 1.66667 12.0208 1.66667 12.3542C1.66667 12.6875 1.66667 13.0139 1.66667 13.3333Z" fill="#002A58"/>
</svg>
