<svg width="11" height="11" viewBox="0 0 11 11" fill="none" xmlns="http://www.w3.org/2000/svg">
<path d="M9.8875 10.5C8.67222 10.5 7.47153 10.2351 6.28542 9.70521C5.09931 9.17535 4.02014 8.4243 3.04792 7.45208C2.07569 6.47986 1.32465 5.40069 0.794792 4.21458C0.264931 3.02847 0 1.82778 0 0.6125C0 0.4375 0.0583333 0.291667 0.175 0.175C0.291667 0.0583333 0.4375 0 0.6125 0H2.975C3.11111 0 3.23264 0.0461806 3.33958 0.138542C3.44653 0.230903 3.50972 0.340278 3.52917 0.466667L3.90833 2.50833C3.92778 2.66389 3.92292 2.79514 3.89375 2.90208C3.86458 3.00903 3.81111 3.10139 3.73333 3.17917L2.31875 4.60833C2.51319 4.96806 2.7441 5.31562 3.01146 5.65104C3.27882 5.98646 3.57292 6.30972 3.89375 6.62083C4.19514 6.92222 4.51111 7.20174 4.84167 7.45937C5.17222 7.71701 5.52222 7.95278 5.89167 8.16667L7.2625 6.79583C7.35 6.70833 7.46424 6.64271 7.60521 6.59896C7.74618 6.55521 7.88472 6.54306 8.02083 6.5625L10.0333 6.97083C10.1694 7.00972 10.2812 7.08021 10.3687 7.18229C10.4562 7.28437 10.5 7.39861 10.5 7.525V9.8875C10.5 10.0625 10.4417 10.2083 10.325 10.325C10.2083 10.4417 10.0625 10.5 9.8875 10.5ZM1.76458 3.5L2.72708 2.5375L2.47917 1.16667H1.18125C1.22986 1.56528 1.29792 1.95903 1.38542 2.34792C1.47292 2.73681 1.59931 3.12083 1.76458 3.5ZM6.98542 8.72083C7.36458 8.88611 7.75104 9.01736 8.14479 9.11458C8.53854 9.21181 8.93472 9.275 9.33333 9.30417V8.02083L7.9625 7.74375L6.98542 8.72083Z" fill="#424750"/>
</svg>
