<svg width="13" height="12" viewBox="0 0 13 12" fill="none" xmlns="http://www.w3.org/2000/svg">
<path d="M6.34958 10.5C6.38847 10.5 6.42736 10.4903 6.46625 10.4708C6.50514 10.4514 6.53431 10.4319 6.55375 10.4125L11.3371 5.62917C11.4537 5.5125 11.5388 5.38125 11.5923 5.23542C11.6458 5.08958 11.6725 4.94375 11.6725 4.79792C11.6725 4.64236 11.6458 4.4941 11.5923 4.35313C11.5388 4.21215 11.4537 4.08819 11.3371 3.98125L8.85792 1.50208C8.75097 1.38542 8.62701 1.30035 8.48604 1.24688C8.34507 1.1934 8.19681 1.16667 8.04125 1.16667C7.89542 1.16667 7.74958 1.1934 7.60375 1.24688C7.45792 1.30035 7.32667 1.38542 7.21 1.50208L7.04958 1.6625L8.12875 2.75625C8.27458 2.89236 8.38153 3.04792 8.44958 3.22292C8.51764 3.39792 8.55167 3.58264 8.55167 3.77708C8.55167 4.18542 8.41313 4.52812 8.13604 4.80521C7.85896 5.08229 7.51625 5.22083 7.10792 5.22083C6.91347 5.22083 6.72632 5.18681 6.54646 5.11875C6.3666 5.05069 6.20861 4.94861 6.0725 4.8125L4.97875 3.73333L2.42667 6.28542C2.3975 6.31458 2.37563 6.34618 2.36104 6.38021C2.34646 6.41424 2.33917 6.45069 2.33917 6.48958C2.33917 6.56736 2.36833 6.63785 2.42667 6.70104C2.485 6.76424 2.55306 6.79583 2.63083 6.79583C2.66972 6.79583 2.70861 6.78611 2.7475 6.76667C2.78639 6.74722 2.81556 6.72778 2.835 6.70833L4.81833 4.725L5.635 5.54167L3.66625 7.525C3.63708 7.55417 3.61521 7.58576 3.60063 7.61979C3.58604 7.65382 3.57875 7.69028 3.57875 7.72917C3.57875 7.80694 3.60792 7.875 3.66625 7.93333C3.72458 7.99167 3.79264 8.02083 3.87042 8.02083C3.90931 8.02083 3.94819 8.01111 3.98708 7.99167C4.02597 7.97222 4.05514 7.95278 4.07458 7.93333L6.05792 5.96458L6.87458 6.78125L4.90583 8.76458C4.87667 8.78403 4.85479 8.81319 4.84021 8.85208C4.82563 8.89097 4.81833 8.92986 4.81833 8.96875C4.81833 9.04653 4.8475 9.11458 4.90583 9.17292C4.96417 9.23125 5.03222 9.26042 5.11 9.26042C5.14889 9.26042 5.18535 9.25313 5.21938 9.23854C5.2534 9.22396 5.285 9.20208 5.31417 9.17292L7.2975 7.20417L8.11417 8.02083L6.13083 10.0042C6.10167 10.0333 6.07979 10.0649 6.06521 10.099C6.05063 10.133 6.04333 10.1694 6.04333 10.2083C6.04333 10.2861 6.07493 10.3542 6.13812 10.4125C6.20132 10.4708 6.27181 10.5 6.34958 10.5ZM6.335 11.6667C5.97528 11.6667 5.65688 11.5476 5.37979 11.3094C5.10271 11.0712 4.93986 10.7722 4.89125 10.4125C4.56069 10.3639 4.28361 10.2278 4.06 10.0042C3.83639 9.78056 3.70028 9.50347 3.65167 9.17292C3.32111 9.12431 3.04646 8.98576 2.82771 8.75729C2.60896 8.52882 2.47528 8.25417 2.42667 7.93333C2.05722 7.88472 1.75583 7.72431 1.5225 7.45208C1.28917 7.17986 1.1725 6.85903 1.1725 6.48958C1.1725 6.29514 1.20896 6.10799 1.28188 5.92812C1.35479 5.74826 1.45931 5.59028 1.59542 5.45417L4.97875 2.08542L6.88917 3.99583C6.90861 4.025 6.93778 4.04688 6.97667 4.06146C7.01556 4.07604 7.05444 4.08333 7.09333 4.08333C7.18083 4.08333 7.25375 4.0566 7.31208 4.00313C7.37042 3.94965 7.39958 3.87917 7.39958 3.79167C7.39958 3.75278 7.39229 3.71389 7.37771 3.675C7.36313 3.63611 7.34125 3.60694 7.31208 3.5875L5.22667 1.50208C5.11972 1.38542 4.99576 1.30035 4.85479 1.24688C4.71382 1.1934 4.56556 1.16667 4.41 1.16667C4.26417 1.16667 4.11833 1.1934 3.9725 1.24688C3.82667 1.30035 3.69542 1.38542 3.57875 1.50208L1.5225 3.57292C1.435 3.66042 1.36208 3.7625 1.30375 3.87917C1.24542 3.99583 1.20653 4.1125 1.18708 4.22917C1.16764 4.34583 1.16764 4.46493 1.18708 4.58646C1.20653 4.70799 1.24542 4.82222 1.30375 4.92917L0.457917 5.775C0.292639 5.55139 0.171111 5.3059 0.0933333 5.03854C0.0155556 4.77118 -0.0136111 4.50139 0.00583333 4.22917C0.0252778 3.95694 0.0933333 3.69201 0.21 3.43438C0.326667 3.17674 0.487083 2.94583 0.69125 2.74167L2.7475 0.685417C2.98083 0.461806 3.2409 0.291667 3.52771 0.175C3.81451 0.0583333 4.10861 0 4.41 0C4.71139 0 5.00549 0.0583333 5.29229 0.175C5.5791 0.291667 5.83431 0.461806 6.05792 0.685417L6.21833 0.845833L6.37875 0.685417C6.61208 0.461806 6.87215 0.291667 7.15896 0.175C7.44576 0.0583333 7.73986 0 8.04125 0C8.34264 0 8.63674 0.0583333 8.92354 0.175C9.21035 0.291667 9.46556 0.461806 9.68917 0.685417L12.1538 3.15C12.3774 3.37361 12.5475 3.63125 12.6642 3.92292C12.7808 4.21458 12.8392 4.51111 12.8392 4.8125C12.8392 5.11389 12.7808 5.40799 12.6642 5.69479C12.5475 5.9816 12.3774 6.23681 12.1538 6.46042L7.37042 11.2292C7.23431 11.3653 7.07632 11.4722 6.89646 11.55C6.7166 11.6278 6.52944 11.6667 6.335 11.6667Z" fill="white"/>
</svg>
