<svg width="12" height="15" viewBox="0 0 12 15" fill="none" xmlns="http://www.w3.org/2000/svg">
<path d="M6 9C6.4125 9 6.76562 8.85312 7.05937 8.55937C7.35312 8.26562 7.5 7.9125 7.5 7.5C7.5 7.0875 7.35312 6.73438 7.05937 6.44063C6.76562 6.14688 6.4125 6 6 6C5.5875 6 5.23438 6.14688 4.94063 6.44063C4.64688 6.73438 4.5 7.0875 4.5 7.5C4.5 7.9125 4.64688 8.26562 4.94063 8.55937C5.23438 8.85312 5.5875 9 6 9ZM3 12H9V11.5688C9 11.2688 8.91875 10.9937 8.75625 10.7437C8.59375 10.4937 8.36875 10.3062 8.08125 10.1812C7.75625 10.0437 7.42188 9.9375 7.07812 9.8625C6.73438 9.7875 6.375 9.75 6 9.75C5.625 9.75 5.26562 9.7875 4.92188 9.8625C4.57812 9.9375 4.24375 10.0437 3.91875 10.1812C3.63125 10.3062 3.40625 10.4937 3.24375 10.7437C3.08125 10.9937 3 11.2688 3 11.5688V12ZM10.5 15H1.5C1.0875 15 0.734375 14.8531 0.440625 14.5594C0.146875 14.2656 0 13.9125 0 13.5V1.5C0 1.0875 0.146875 0.734375 0.440625 0.440625C0.734375 0.146875 1.0875 0 1.5 0H7.5L12 4.5V13.5C12 13.9125 11.8531 14.2656 11.5594 14.5594C11.2656 14.8531 10.9125 15 10.5 15ZM10.5 13.5V5.1375L6.8625 1.5H1.5V13.5H10.5ZM1.5 13.5V1.5V5.1375V13.5Z" fill="#1B6D24"/>
</svg>
