<svg width="12" height="15" viewBox="0 0 12 15" fill="none" xmlns="http://www.w3.org/2000/svg">
<path d="M6 8.125H6.005M6 3.75V5.625M2 12.1875V2.8125C2 2.3981 2.1317 2.00067 2.36612 1.70765C2.60054 1.41462 2.91848 1.25 3.25 1.25H9.5C9.63261 1.25 9.75979 1.31585 9.85355 1.43306C9.94732 1.55027 10 1.70924 10 1.875V13.125C10 13.2908 9.94732 13.4497 9.85355 13.5669C9.75979 13.6842 9.63261 13.75 9.5 13.75H3.25C2.91848 13.75 2.60054 13.5854 2.36612 13.2924C2.1317 12.9993 2 12.6019 2 12.1875ZM2 12.1875C2 11.7731 2.1317 11.3757 2.36612 11.0826C2.60054 10.7896 2.91848 10.625 3.25 10.625H10" stroke="#1B6D24" stroke-linecap="round" stroke-linejoin="round"/>
</svg>
