<svg width="20" height="20" viewBox="0 0 20 20" fill="none" xmlns="http://www.w3.org/2000/svg">
<path d="M5 16H7V14H9V12H7V10H5V12H3V14H5V16ZM11 12.5H17V11H11V12.5ZM11 15.5H15V14H11V15.5ZM2 20C1.45 20 0.979167 19.8042 0.5875 19.4125C0.195833 19.0208 0 18.55 0 18V7C0 6.45 0.195833 5.97917 0.5875 5.5875C0.979167 5.19583 1.45 5 2 5H7V2C7 1.45 7.19583 0.979167 7.5875 0.5875C7.97917 0.195833 8.45 0 9 0H11C11.55 0 12.0208 0.195833 12.4125 0.5875C12.8042 0.979167 13 1.45 13 2V5H18C18.55 5 19.0208 5.19583 19.4125 5.5875C19.8042 5.97917 20 6.45 20 7V18C20 18.55 19.8042 19.0208 19.4125 19.4125C19.0208 19.8042 18.55 20 18 20H2ZM2 18H18V7H13C13 7.55 12.8042 8.02083 12.4125 8.4125C12.0208 8.80417 11.55 9 11 9H9C8.45 9 7.97917 8.80417 7.5875 8.4125C7.19583 8.02083 7 7.55 7 7H2V18ZM9 7H11V2H9V7Z" fill="#002A58"/>
</svg>
