<svg width="24" height="26" viewBox="0 0 24 26" fill="none" xmlns="http://www.w3.org/2000/svg">
<path d="M7.5 25.625L5 23.75V18.75H3.75C3.0625 18.75 2.47396 18.5052 1.98438 18.0156C1.49479 17.526 1.25 16.9375 1.25 16.25V6.875C0.895833 6.875 0.598958 6.75521 0.359375 6.51562C0.119792 6.27604 0 5.97917 0 5.625C0 5.27083 0.119792 4.97396 0.359375 4.73438C0.598958 4.49479 0.895833 4.375 1.25 4.375H5V2.5H4.375C4.02083 2.5 3.72396 2.38021 3.48438 2.14062C3.24479 1.90104 3.125 1.60417 3.125 1.25C3.125 0.895833 3.24479 0.598958 3.48438 0.359375C3.72396 0.119792 4.02083 0 4.375 0H8.125C8.47917 0 8.77604 0.119792 9.01562 0.359375C9.25521 0.598958 9.375 0.895833 9.375 1.25C9.375 1.60417 9.25521 1.90104 9.01562 2.14062C8.77604 2.38021 8.47917 2.5 8.125 2.5H7.5V4.375H11.25C11.6042 4.375 11.901 4.49479 12.1406 4.73438C12.3802 4.97396 12.5 5.27083 12.5 5.625C12.5 5.97917 12.3802 6.27604 12.1406 6.51562C11.901 6.75521 11.6042 6.875 11.25 6.875V16.25C11.25 16.9375 11.0052 17.526 10.5156 18.0156C10.026 18.5052 9.4375 18.75 8.75 18.75H7.5V25.625ZM3.75 16.25H8.75V14.375H6.5625C6.3125 14.375 6.09375 14.2812 5.90625 14.0938C5.71875 13.9062 5.625 13.6875 5.625 13.4375C5.625 13.1875 5.71875 12.9688 5.90625 12.7812C6.09375 12.5938 6.3125 12.5 6.5625 12.5H8.75V10.625H6.5625C6.3125 10.625 6.09375 10.5312 5.90625 10.3438C5.71875 10.1562 5.625 9.9375 5.625 9.6875C5.625 9.4375 5.71875 9.21875 5.90625 9.03125C6.09375 8.84375 6.3125 8.75 6.5625 8.75H8.75V6.875H3.75V16.25ZM16.25 25C15.5625 25 14.974 24.7552 14.4844 24.2656C13.9948 23.776 13.75 23.1875 13.75 22.5V14.375C13.75 13.7708 13.8542 13.2708 14.0625 12.875C14.2708 12.4792 14.4896 12.1354 14.7188 11.8438C14.9479 11.5521 15.1562 11.3177 15.3438 11.1406C15.5312 10.9635 15.625 10.7917 15.625 10.625V10C15.2708 10 14.974 9.88021 14.7344 9.64062C14.4948 9.40104 14.375 9.10417 14.375 8.75C14.375 8.39583 14.4948 8.09896 14.7344 7.85938C14.974 7.61979 15.2708 7.5 15.625 7.5H21.875C22.2292 7.5 22.526 7.61979 22.7656 7.85938C23.0052 8.09896 23.125 8.39583 23.125 8.75C23.125 9.10417 23.0052 9.40104 22.7656 9.64062C22.526 9.88021 22.2292 10 21.875 10V10.625C21.875 10.7917 21.9792 10.9792 22.1875 11.1875C22.3958 11.3958 22.625 11.6458 22.875 11.9375C23.1042 12.2292 23.3073 12.5729 23.4844 12.9688C23.6615 13.3646 23.75 13.8333 23.75 14.375V22.5C23.75 23.1875 23.5052 23.776 23.0156 24.2656C22.526 24.7552 21.9375 25 21.25 25H16.25ZM16.25 15H21.25V14.375C21.25 14.0625 21.1562 13.7917 20.9688 13.5625C20.7812 13.3333 20.5729 13.0833 20.3438 12.8125C20.1146 12.5417 19.8958 12.2396 19.6875 11.9062C19.4792 11.5729 19.375 11.1458 19.375 10.625V10H18.125V10.625C18.125 11.125 18.026 11.5417 17.8281 11.875C17.6302 12.2083 17.4167 12.5104 17.1875 12.7812C16.9583 13.0521 16.7448 13.3073 16.5469 13.5469C16.349 13.7865 16.25 14.0625 16.25 14.375V15ZM16.25 18.75H21.25V16.875H16.25V18.75ZM16.25 22.5H21.25V20.625H16.25V22.5ZM16.25 18.75H21.25H16.25Z" fill="#00201B"/>
</svg>
