<svg width="20" height="19" viewBox="0 0 20 19" fill="none" xmlns="http://www.w3.org/2000/svg">
<path d="M10.025 18.925C7.79167 16.675 6.0125 14.8583 4.6875 13.475C3.3625 12.0917 2.35417 10.9417 1.6625 10.025C0.970833 9.10833 0.520833 8.325 0.3125 7.675C0.104167 7.025 0 6.3 0 5.5C0 3.96667 0.533333 2.66667 1.6 1.6C2.66667 0.533333 3.96667 0 5.5 0C6.25 0 6.975 0.1375 7.675 0.4125C8.375 0.6875 9 1.08333 9.55 1.6L8 7H11L10.15 15.375L13 6H10L11.775 0.7C12.1917 0.466667 12.6292 0.291667 13.0875 0.175C13.5458 0.0583333 14.0167 0 14.5 0C16.0333 0 17.3333 0.533333 18.4 1.6C19.4667 2.66667 20 3.96667 20 5.5C20 6.3 19.8917 7.03333 19.675 7.7C19.4583 8.36667 19 9.1625 18.3 10.0875C17.6 11.0125 16.5917 12.1625 15.275 13.5375C13.9583 14.9125 12.2083 16.7083 10.025 18.925ZM8.25 14.275L8.775 9H5.35L7.225 2.425C6.95833 2.29167 6.67917 2.1875 6.3875 2.1125C6.09583 2.0375 5.8 2 5.5 2C4.53333 2 3.70833 2.34167 3.025 3.025C2.34167 3.70833 2 4.53333 2 5.5C2 6.01667 2.09583 6.53333 2.2875 7.05C2.47917 7.56667 2.8125 8.15417 3.2875 8.8125C3.7625 9.47083 4.40417 10.2375 5.2125 11.1125C6.02083 11.9875 7.03333 13.0417 8.25 14.275ZM12.95 13.075C14.8 11.1917 16.1042 9.69167 16.8625 8.575C17.6208 7.45833 18 6.43333 18 5.5C18 4.53333 17.6583 3.70833 16.975 3.025C16.2917 2.34167 15.4667 2 14.5 2C14.3167 2 14.1333 2.0125 13.95 2.0375C13.7667 2.0625 13.5833 2.10833 13.4 2.175L12.8 4H15.7L12.95 13.075Z" fill="#004A41"/>
</svg>
