<svg width="21" height="21" viewBox="0 0 21 21" fill="none" xmlns="http://www.w3.org/2000/svg">
<path d="M10.025 20.05C9.75833 20.05 9.50417 20 9.2625 19.9C9.02083 19.8 8.8 19.6583 8.6 19.475L0.575 11.45C0.391667 11.25 0.25 11.0292 0.15 10.7875C0.05 10.5458 0 10.2917 0 10.025C0 9.75833 0.05 9.5 0.15 9.25C0.25 9 0.391667 8.78333 0.575 8.6L8.6 0.575C8.8 0.375 9.02083 0.229167 9.2625 0.1375C9.50417 0.0458333 9.75833 0 10.025 0C10.2917 0 10.55 0.0458333 10.8 0.1375C11.05 0.229167 11.2667 0.375 11.45 0.575L19.475 8.6C19.675 8.78333 19.8208 9 19.9125 9.25C20.0042 9.5 20.05 9.75833 20.05 10.025C20.05 10.2917 20.0042 10.5458 19.9125 10.7875C19.8208 11.0292 19.675 11.25 19.475 11.45L11.45 19.475C11.2667 19.6583 11.05 19.8 10.8 19.9C10.55 20 10.2917 20.05 10.025 20.05ZM10.025 18.05L18.05 10.025L10.025 2L2 10.025L10.025 18.05ZM9.025 11.025H11.025V5.025H9.025V11.025ZM10.025 14.025C10.3083 14.025 10.5458 13.9292 10.7375 13.7375C10.9292 13.5458 11.025 13.3083 11.025 13.025C11.025 12.7417 10.9292 12.5042 10.7375 12.3125C10.5458 12.1208 10.3083 12.025 10.025 12.025C9.74167 12.025 9.50417 12.1208 9.3125 12.3125C9.12083 12.5042 9.025 12.7417 9.025 13.025C9.025 13.3083 9.12083 13.5458 9.3125 13.7375C9.50417 13.9292 9.74167 14.025 10.025 14.025Z" fill="#BA1A1A"/>
</svg>
