<svg width="62" height="54" viewBox="0 0 62 54" fill="none" xmlns="http://www.w3.org/2000/svg">
<path d="M30.9997 29.25C32.4264 29.25 33.583 28.2426 33.583 27C33.583 25.7574 32.4264 24.75 30.9997 24.75C29.5729 24.75 28.4163 25.7574 28.4163 27C28.4163 28.2426 29.5729 29.25 30.9997 29.25Z" stroke="#11C125" stroke-width="5" stroke-linecap="round" stroke-linejoin="round"/>
<path d="M49.083 29.25C50.5097 29.25 51.6663 28.2426 51.6663 27C51.6663 25.7574 50.5097 24.75 49.083 24.75C47.6563 24.75 46.4997 25.7574 46.4997 27C46.4997 28.2426 47.6563 29.25 49.083 29.25Z" stroke="#11C125" stroke-width="5" stroke-linecap="round" stroke-linejoin="round"/>
<path d="M12.9163 29.25C14.3431 29.25 15.4997 28.2426 15.4997 27C15.4997 25.7574 14.3431 24.75 12.9163 24.75C11.4896 24.75 10.333 25.7574 10.333 27C10.333 28.2426 11.4896 29.25 12.9163 29.25Z" stroke="#11C125" stroke-width="5" stroke-linecap="round" stroke-linejoin="round"/>
</svg>
