<svg xmlns="http://www.w3.org/2000/svg" width="320" height="140">
        <path d="M 80 40 L 80 15 A 55 55 0 0 1 120.27 107.46 L 101.97 90.43 A 30 30 0 0 0 80 40 Z" fill="#2f9df0" stroke="#fff" stroke-width="1"/><text x="115.3" y="56.6"
                text-anchor="middle" font-size="6" fill="#fff" font-weight="bold">37%</text><path d="M 101.97 90.43 L 120.27 107.46 A 55 55 0 0 1 46.59 113.69 L 61.78 93.83 A 30 30 0 0 0 101.97 90.43 Z" fill="#0f2a6d" stroke="#fff" stroke-width="1"/><text x="83.2" y="110.4"
                text-anchor="middle" font-size="6" fill="#fff" font-weight="bold">23%</text><path d="M 61.78 93.83 L 46.59 113.69 A 55 55 0 0 1 30.52 45.99 L 53.01 56.9 A 30 30 0 0 0 61.78 93.83 Z" fill="#1728d9" stroke="#fff" stroke-width="1"/><text x="42.5" y="80.9"
                text-anchor="middle" font-size="6" fill="#fff" font-weight="bold">22%</text><path d="M 53.01 56.9 L 30.52 45.99 A 55 55 0 0 1 80 15 L 80 40 A 30 30 0 0 0 53.01 56.9 Z" fill="#22c55e" stroke="#fff" stroke-width="1"/><text x="59.6" y="39.4"
                text-anchor="middle" font-size="6" fill="#fff" font-weight="bold">18%</text>
        <text x="80" y="66"
        text-anchor="middle" font-size="7" fill="#555">Total</text>
        <text x="80" y="78"
        text-anchor="middle" font-size="10" font-weight="bold" fill="#0f2a6d">13,403</text>
        <rect x="170" y="20" width="8" height="8" fill="#2f9df0"/><text x="182" y="27" font-size="7" fill="#333">Skin (4,949)</text><rect x="170" y="36" width="8" height="8" fill="#0f2a6d"/><text x="182" y="43" font-size="7" fill="#333">Parasitic (3,145)</text><rect x="170" y="52" width="8" height="8" fill="#1728d9"/><text x="182" y="59" font-size="7" fill="#333">Respiratory (2,922)</text><rect x="170" y="68" width="8" height="8" fill="#22c55e"/><text x="182" y="75" font-size="7" fill="#333">Gastrointestinal (2,387)</text>
    </svg>