<svg xmlns="http://www.w3.org/2000/svg" viewBox="0 0 240 120" width="240" height="120">
        <path d="M60 32 L60 12 A46 46 0 0 1 93.68 89.33 L79.04 75.71 A26 26 0 0 0 60 32Z" fill="#2f9df0" stroke="#fff" stroke-width="1"/><text x="88.7" y="47.5"
                text-anchor="middle" font-size="6" fill="#fff" font-weight="bold">37%</text><path d="M79.04 75.71 L93.68 89.33 A46 46 0 0 1 32.06 94.54 L44.21 78.65 A26 26 0 0 0 79.04 75.71Z" fill="#0f2a6d" stroke="#fff" stroke-width="1"/><text x="62.6" y="91.2"
                text-anchor="middle" font-size="6" fill="#fff" font-weight="bold">23%</text><path d="M44.21 78.65 L32.06 94.54 A46 46 0 0 1 18.62 37.92 L36.61 46.65 A26 26 0 0 0 44.21 78.65Z" fill="#1728d9" stroke="#fff" stroke-width="1"/><text x="29.6" y="67.2"
                text-anchor="middle" font-size="6" fill="#fff" font-weight="bold">22%</text><path d="M36.61 46.65 L18.62 37.92 A46 46 0 0 1 60 12 L60 32 A26 26 0 0 0 36.61 46.65Z" fill="#22c55e" stroke="#fff" stroke-width="1"/><text x="43.4" y="33.5"
                text-anchor="middle" font-size="6" fill="#fff" font-weight="bold">18%</text>
        <text x="60" y="53" text-anchor="middle" font-size="6.5" fill="#777">Total</text>
        <text x="60" y="66" text-anchor="middle" font-size="11" font-weight="bold" fill="#0f2a6d">13,403</text>
        <rect x="130" y="16" width="7" height="7" fill="#2f9df0"/><text x="140" y="22" font-size="6" fill="#333">Skin (4,949)</text><rect x="130" y="30" width="7" height="7" fill="#0f2a6d"/><text x="140" y="36" font-size="6" fill="#333">Parasitic (3,145)</text><rect x="130" y="44" width="7" height="7" fill="#1728d9"/><text x="140" y="50" font-size="6" fill="#333">Respiratory (2,922)</text><rect x="130" y="58" width="7" height="7" fill="#22c55e"/><text x="140" y="64" font-size="6" fill="#333">Gastrointestinal (2,387)</text>
    </svg>