<svg xmlns="http://www.w3.org/2000/svg" viewBox="0 0 240 120" width="240" height="120">
        <line x1="28" y1="96" x2="232" y2="96" stroke="#edf2f9" stroke-width="0.5"/><text x="25" y="98" text-anchor="end" font-size="5.5" fill="#9aa">0</text><line x1="28" y1="74" x2="232" y2="74" stroke="#edf2f9" stroke-width="0.5"/><text x="25" y="76" text-anchor="end" font-size="5.5" fill="#9aa">1002</text><line x1="28" y1="52" x2="232" y2="52" stroke="#edf2f9" stroke-width="0.5"/><text x="25" y="54" text-anchor="end" font-size="5.5" fill="#9aa">2003</text><line x1="28" y1="30" x2="232" y2="30" stroke="#edf2f9" stroke-width="0.5"/><text x="25" y="32" text-anchor="end" font-size="5.5" fill="#9aa">3005</text><line x1="28" y1="8" x2="232" y2="8" stroke="#edf2f9" stroke-width="0.5"/><text x="25" y="10" text-anchor="end" font-size="5.5" fill="#9aa">4006</text>
        <polygon points="28,95.5 28,95.5 33.8,94.7 39.7,80.5 45.5,71.9 51.3,48.2 57.1,37.9 63,71.9 68.8,26.7 74.6,25.5 80.5,25 86.3,20 92.1,9 97.9,95.5 103.8,94.9 109.6,85.2 115.4,69.4 121.3,55.3 127.1,46.6 132.9,41.8 138.7,41.9 144.6,13.9 150.4,11 156.2,8.8 162.1,8 167.9,88.2 173.7,87.5 179.5,84 185.4,81.2 191.2,79.8 197,80.5 202.9,82.6 208.7,83.3 214.5,84 220.3,84.7 226.2,86.8 232,88.2 232,96 28,96" fill="#2f9df0" fill-opacity="0.08"/>
        <polyline points="28,95.5 33.8,94.7 39.7,80.5 45.5,71.9 51.3,48.2 57.1,37.9 63,71.9 68.8,26.7 74.6,25.5 80.5,25 86.3,20 92.1,9 97.9,95.5 103.8,94.9 109.6,85.2 115.4,69.4 121.3,55.3 127.1,46.6 132.9,41.8 138.7,41.9 144.6,13.9 150.4,11 156.2,8.8 162.1,8 167.9,88.2 173.7,87.5 179.5,84 185.4,81.2 191.2,79.8 197,80.5 202.9,82.6 208.7,83.3 214.5,84 220.3,84.7 226.2,86.8 232,88.2" fill="none" stroke="#2f9df0" stroke-width="1.6" stroke-linejoin="round"/>
        <circle cx="28" cy="95.5" r="2" fill="#2f9df0" stroke="#fff" stroke-width="0.8"/><circle cx="33.8" cy="94.7" r="2" fill="#2f9df0" stroke="#fff" stroke-width="0.8"/><circle cx="39.7" cy="80.5" r="2" fill="#2f9df0" stroke="#fff" stroke-width="0.8"/><circle cx="45.5" cy="71.9" r="2" fill="#2f9df0" stroke="#fff" stroke-width="0.8"/><circle cx="51.3" cy="48.2" r="2" fill="#2f9df0" stroke="#fff" stroke-width="0.8"/><circle cx="57.1" cy="37.9" r="2" fill="#2f9df0" stroke="#fff" stroke-width="0.8"/><circle cx="63" cy="71.9" r="2" fill="#2f9df0" stroke="#fff" stroke-width="0.8"/><circle cx="68.8" cy="26.7" r="2" fill="#2f9df0" stroke="#fff" stroke-width="0.8"/><circle cx="74.6" cy="25.5" r="2" fill="#2f9df0" stroke="#fff" stroke-width="0.8"/><circle cx="80.5" cy="25" r="2" fill="#2f9df0" stroke="#fff" stroke-width="0.8"/><circle cx="86.3" cy="20" r="2" fill="#2f9df0" stroke="#fff" stroke-width="0.8"/><circle cx="92.1" cy="9" r="2" fill="#2f9df0" stroke="#fff" stroke-width="0.8"/><circle cx="97.9" cy="95.5" r="2" fill="#2f9df0" stroke="#fff" stroke-width="0.8"/><circle cx="103.8" cy="94.9" r="2" fill="#2f9df0" stroke="#fff" stroke-width="0.8"/><circle cx="109.6" cy="85.2" r="2" fill="#2f9df0" stroke="#fff" stroke-width="0.8"/><circle cx="115.4" cy="69.4" r="2" fill="#2f9df0" stroke="#fff" stroke-width="0.8"/><circle cx="121.3" cy="55.3" r="2" fill="#2f9df0" stroke="#fff" stroke-width="0.8"/><circle cx="127.1" cy="46.6" r="2" fill="#2f9df0" stroke="#fff" stroke-width="0.8"/><circle cx="132.9" cy="41.8" r="2" fill="#2f9df0" stroke="#fff" stroke-width="0.8"/><circle cx="138.7" cy="41.9" r="2" fill="#2f9df0" stroke="#fff" stroke-width="0.8"/><circle cx="144.6" cy="13.9" r="2" fill="#2f9df0" stroke="#fff" stroke-width="0.8"/><circle cx="150.4" cy="11" r="2" fill="#2f9df0" stroke="#fff" stroke-width="0.8"/><circle cx="156.2" cy="8.8" r="2" fill="#2f9df0" stroke="#fff" stroke-width="0.8"/><circle cx="162.1" cy="8" r="2" fill="#2f9df0" stroke="#fff" stroke-width="0.8"/><circle cx="167.9" cy="88.2" r="2" fill="#2f9df0" stroke="#fff" stroke-width="0.8"/><circle cx="173.7" cy="87.5" r="2" fill="#2f9df0" stroke="#fff" stroke-width="0.8"/><circle cx="179.5" cy="84" r="2" fill="#2f9df0" stroke="#fff" stroke-width="0.8"/><circle cx="185.4" cy="81.2" r="2" fill="#2f9df0" stroke="#fff" stroke-width="0.8"/><circle cx="191.2" cy="79.8" r="2" fill="#2f9df0" stroke="#fff" stroke-width="0.8"/><circle cx="197" cy="80.5" r="2" fill="#2f9df0" stroke="#fff" stroke-width="0.8"/><circle cx="202.9" cy="82.6" r="2" fill="#2f9df0" stroke="#fff" stroke-width="0.8"/><circle cx="208.7" cy="83.3" r="2" fill="#2f9df0" stroke="#fff" stroke-width="0.8"/><circle cx="214.5" cy="84" r="2" fill="#2f9df0" stroke="#fff" stroke-width="0.8"/><circle cx="220.3" cy="84.7" r="2" fill="#2f9df0" stroke="#fff" stroke-width="0.8"/><circle cx="226.2" cy="86.8" r="2" fill="#2f9df0" stroke="#fff" stroke-width="0.8"/><circle cx="232" cy="88.2" r="2" fill="#2f9df0" stroke="#fff" stroke-width="0.8"/>
        <text x="28" y="116" text-anchor="middle" font-size="5.5" fill="#9aa">Jan 23</text><text x="75" y="116" text-anchor="middle" font-size="5.5" fill="#9aa">Sep 23</text><text x="121" y="116" text-anchor="middle" font-size="5.5" fill="#9aa">May 24</text><text x="168" y="116" text-anchor="middle" font-size="5.5" fill="#9aa">Jan 25</text><text x="215" y="116" text-anchor="middle" font-size="5.5" fill="#9aa">Sep 25</text><text x="232" y="116" text-anchor="middle" font-size="5.5" fill="#9aa">Dec 25</text>
        <rect x="28" y="109" width="7" height="4" fill="#2f9df0"/>
        <text x="37" y="112" font-size="5.5" fill="#555">Total Vaccinated</text>
    </svg>