<svg xmlns="http://www.w3.org/2000/svg" width="320" height="140">
        <text x="31" y="110"
            text-anchor="end" font-size="6" fill="#888">0</text><line x1="35" y1="110" x2="310" y2="110"
            stroke="#e8ecf4" stroke-width="0.5"/><text x="31" y="85"
            text-anchor="end" font-size="6" fill="#888">119</text><line x1="35" y1="85" x2="310" y2="85"
            stroke="#e8ecf4" stroke-width="0.5"/><text x="31" y="60"
            text-anchor="end" font-size="6" fill="#888">239</text><line x1="35" y1="60" x2="310" y2="60"
            stroke="#e8ecf4" stroke-width="0.5"/><text x="31" y="35"
            text-anchor="end" font-size="6" fill="#888">358</text><line x1="35" y1="35" x2="310" y2="35"
            stroke="#e8ecf4" stroke-width="0.5"/><text x="31" y="10"
            text-anchor="end" font-size="6" fill="#888">477</text><line x1="35" y1="10" x2="310" y2="10"
            stroke="#e8ecf4" stroke-width="0.5"/>
        <text x="35" y="134"
            text-anchor="middle" font-size="6" fill="#888">Jan 23</text><text x="82.1" y="134"
            text-anchor="middle" font-size="6" fill="#888">Jul 23</text><text x="129.3" y="134"
            text-anchor="middle" font-size="6" fill="#888">Jan 24</text><text x="176.4" y="134"
            text-anchor="middle" font-size="6" fill="#888">Jul 24</text><text x="223.6" y="134"
            text-anchor="middle" font-size="6" fill="#888">Jan 25</text><text x="270.7" y="134"
            text-anchor="middle" font-size="6" fill="#888">Jul 25</text><text x="310" y="134"
            text-anchor="middle" font-size="6" fill="#888">Dec 25</text>
        <polyline points="35,37.9 42.9,37.9 50.7,28 58.6,28 66.4,28 74.3,20.5 82.1,20.5 90,20.5 97.9,20.5 105.7,20.5 113.6,37.9 121.4,37.9 129.3,30.3 137.1,30.3 145,18.6 152.9,18.6 160.7,18.6 168.6,10 176.4,10 184.3,10 192.1,10 200,10 207.9,30.3 215.7,30.3 223.6,34.3 231.4,34.3 239.3,23.8 247.1,23.8 255,23.8 262.9,15.7 270.7,15.7 278.6,15.7 286.4,15.7 294.3,15.7 302.1,34.3 310,34.3"
            fill="none" stroke="#2f9df0" stroke-width="1.8" stroke-linejoin="round"/>
        <circle cx="35" cy="37.9" r="2.5"
            fill="#2f9df0" stroke="#fff" stroke-width="1"/><circle cx="42.9" cy="37.9" r="2.5"
            fill="#2f9df0" stroke="#fff" stroke-width="1"/><circle cx="50.7" cy="28" r="2.5"
            fill="#2f9df0" stroke="#fff" stroke-width="1"/><circle cx="58.6" cy="28" r="2.5"
            fill="#2f9df0" stroke="#fff" stroke-width="1"/><circle cx="66.4" cy="28" r="2.5"
            fill="#2f9df0" stroke="#fff" stroke-width="1"/><circle cx="74.3" cy="20.5" r="2.5"
            fill="#2f9df0" stroke="#fff" stroke-width="1"/><circle cx="82.1" cy="20.5" r="2.5"
            fill="#2f9df0" stroke="#fff" stroke-width="1"/><circle cx="90" cy="20.5" r="2.5"
            fill="#2f9df0" stroke="#fff" stroke-width="1"/><circle cx="97.9" cy="20.5" r="2.5"
            fill="#2f9df0" stroke="#fff" stroke-width="1"/><circle cx="105.7" cy="20.5" r="2.5"
            fill="#2f9df0" stroke="#fff" stroke-width="1"/><circle cx="113.6" cy="37.9" r="2.5"
            fill="#2f9df0" stroke="#fff" stroke-width="1"/><circle cx="121.4" cy="37.9" r="2.5"
            fill="#2f9df0" stroke="#fff" stroke-width="1"/><circle cx="129.3" cy="30.3" r="2.5"
            fill="#2f9df0" stroke="#fff" stroke-width="1"/><circle cx="137.1" cy="30.3" r="2.5"
            fill="#2f9df0" stroke="#fff" stroke-width="1"/><circle cx="145" cy="18.6" r="2.5"
            fill="#2f9df0" stroke="#fff" stroke-width="1"/><circle cx="152.9" cy="18.6" r="2.5"
            fill="#2f9df0" stroke="#fff" stroke-width="1"/><circle cx="160.7" cy="18.6" r="2.5"
            fill="#2f9df0" stroke="#fff" stroke-width="1"/><circle cx="168.6" cy="10" r="2.5"
            fill="#2f9df0" stroke="#fff" stroke-width="1"/><circle cx="176.4" cy="10" r="2.5"
            fill="#2f9df0" stroke="#fff" stroke-width="1"/><circle cx="184.3" cy="10" r="2.5"
            fill="#2f9df0" stroke="#fff" stroke-width="1"/><circle cx="192.1" cy="10" r="2.5"
            fill="#2f9df0" stroke="#fff" stroke-width="1"/><circle cx="200" cy="10" r="2.5"
            fill="#2f9df0" stroke="#fff" stroke-width="1"/><circle cx="207.9" cy="30.3" r="2.5"
            fill="#2f9df0" stroke="#fff" stroke-width="1"/><circle cx="215.7" cy="30.3" r="2.5"
            fill="#2f9df0" stroke="#fff" stroke-width="1"/><circle cx="223.6" cy="34.3" r="2.5"
            fill="#2f9df0" stroke="#fff" stroke-width="1"/><circle cx="231.4" cy="34.3" r="2.5"
            fill="#2f9df0" stroke="#fff" stroke-width="1"/><circle cx="239.3" cy="23.8" r="2.5"
            fill="#2f9df0" stroke="#fff" stroke-width="1"/><circle cx="247.1" cy="23.8" r="2.5"
            fill="#2f9df0" stroke="#fff" stroke-width="1"/><circle cx="255" cy="23.8" r="2.5"
            fill="#2f9df0" stroke="#fff" stroke-width="1"/><circle cx="262.9" cy="15.7" r="2.5"
            fill="#2f9df0" stroke="#fff" stroke-width="1"/><circle cx="270.7" cy="15.7" r="2.5"
            fill="#2f9df0" stroke="#fff" stroke-width="1"/><circle cx="278.6" cy="15.7" r="2.5"
            fill="#2f9df0" stroke="#fff" stroke-width="1"/><circle cx="286.4" cy="15.7" r="2.5"
            fill="#2f9df0" stroke="#fff" stroke-width="1"/><circle cx="294.3" cy="15.7" r="2.5"
            fill="#2f9df0" stroke="#fff" stroke-width="1"/><circle cx="302.1" cy="34.3" r="2.5"
            fill="#2f9df0" stroke="#fff" stroke-width="1"/><circle cx="310" cy="34.3" r="2.5"
            fill="#2f9df0" stroke="#fff" stroke-width="1"/>
        <rect x="35" y="128" width="8" height="4" fill="#2f9df0"/>
        <text x="45" y="131" font-size="6" fill="#555">Total Cases</text>
    </svg>