<svg xmlns="http://www.w3.org/2000/svg" viewBox="0 0 240 120" width="240" height="120">
        <line x1="28" y1="96" x2="232" y2="96" stroke="#edf2f9" stroke-width="0.5"/><text x="25" y="98" text-anchor="end" font-size="5.5" fill="#9aa">0</text><line x1="28" y1="74" x2="232" y2="74" stroke="#edf2f9" stroke-width="0.5"/><text x="25" y="76" text-anchor="end" font-size="5.5" fill="#9aa">40</text><line x1="28" y1="52" x2="232" y2="52" stroke="#edf2f9" stroke-width="0.5"/><text x="25" y="54" text-anchor="end" font-size="5.5" fill="#9aa">79</text><line x1="28" y1="30" x2="232" y2="30" stroke="#edf2f9" stroke-width="0.5"/><text x="25" y="32" text-anchor="end" font-size="5.5" fill="#9aa">119</text><line x1="28" y1="8" x2="232" y2="8" stroke="#edf2f9" stroke-width="0.5"/><text x="25" y="10" text-anchor="end" font-size="5.5" fill="#9aa">158</text>
        <polygon points="28,31.4 28,31.4 33.8,27.5 39.7,21.4 45.5,28.1 51.3,27.5 57.1,21.9 63,24.2 68.8,20.8 74.6,19.1 80.5,24.2 86.3,23.6 92.1,28.1 97.9,12.5 103.8,16.4 109.6,10.2 115.4,22.5 121.3,11.3 127.1,11.9 132.9,9.1 138.7,8 144.6,10.2 150.4,13 156.2,15.2 162.1,18.6 167.9,24.2 173.7,23 179.5,22.5 185.4,24.7 191.2,23.6 197,15.8 202.9,19.1 208.7,16.9 214.5,12.5 220.3,11.9 226.2,10.8 232,17.5 232,96 28,96" fill="#2f9df0" fill-opacity="0.08"/>
        <polyline points="28,31.4 33.8,27.5 39.7,21.4 45.5,28.1 51.3,27.5 57.1,21.9 63,24.2 68.8,20.8 74.6,19.1 80.5,24.2 86.3,23.6 92.1,28.1 97.9,12.5 103.8,16.4 109.6,10.2 115.4,22.5 121.3,11.3 127.1,11.9 132.9,9.1 138.7,8 144.6,10.2 150.4,13 156.2,15.2 162.1,18.6 167.9,24.2 173.7,23 179.5,22.5 185.4,24.7 191.2,23.6 197,15.8 202.9,19.1 208.7,16.9 214.5,12.5 220.3,11.9 226.2,10.8 232,17.5" fill="none" stroke="#2f9df0" stroke-width="1.6" stroke-linejoin="round"/>
        <circle cx="28" cy="31.4" r="2" fill="#2f9df0" stroke="#fff" stroke-width="0.8"/><circle cx="33.8" cy="27.5" r="2" fill="#2f9df0" stroke="#fff" stroke-width="0.8"/><circle cx="39.7" cy="21.4" r="2" fill="#2f9df0" stroke="#fff" stroke-width="0.8"/><circle cx="45.5" cy="28.1" r="2" fill="#2f9df0" stroke="#fff" stroke-width="0.8"/><circle cx="51.3" cy="27.5" r="2" fill="#2f9df0" stroke="#fff" stroke-width="0.8"/><circle cx="57.1" cy="21.9" r="2" fill="#2f9df0" stroke="#fff" stroke-width="0.8"/><circle cx="63" cy="24.2" r="2" fill="#2f9df0" stroke="#fff" stroke-width="0.8"/><circle cx="68.8" cy="20.8" r="2" fill="#2f9df0" stroke="#fff" stroke-width="0.8"/><circle cx="74.6" cy="19.1" r="2" fill="#2f9df0" stroke="#fff" stroke-width="0.8"/><circle cx="80.5" cy="24.2" r="2" fill="#2f9df0" stroke="#fff" stroke-width="0.8"/><circle cx="86.3" cy="23.6" r="2" fill="#2f9df0" stroke="#fff" stroke-width="0.8"/><circle cx="92.1" cy="28.1" r="2" fill="#2f9df0" stroke="#fff" stroke-width="0.8"/><circle cx="97.9" cy="12.5" r="2" fill="#2f9df0" stroke="#fff" stroke-width="0.8"/><circle cx="103.8" cy="16.4" r="2" fill="#2f9df0" stroke="#fff" stroke-width="0.8"/><circle cx="109.6" cy="10.2" r="2" fill="#2f9df0" stroke="#fff" stroke-width="0.8"/><circle cx="115.4" cy="22.5" r="2" fill="#2f9df0" stroke="#fff" stroke-width="0.8"/><circle cx="121.3" cy="11.3" r="2" fill="#2f9df0" stroke="#fff" stroke-width="0.8"/><circle cx="127.1" cy="11.9" r="2" fill="#2f9df0" stroke="#fff" stroke-width="0.8"/><circle cx="132.9" cy="9.1" r="2" fill="#2f9df0" stroke="#fff" stroke-width="0.8"/><circle cx="138.7" cy="8" r="2" fill="#2f9df0" stroke="#fff" stroke-width="0.8"/><circle cx="144.6" cy="10.2" r="2" fill="#2f9df0" stroke="#fff" stroke-width="0.8"/><circle cx="150.4" cy="13" r="2" fill="#2f9df0" stroke="#fff" stroke-width="0.8"/><circle cx="156.2" cy="15.2" r="2" fill="#2f9df0" stroke="#fff" stroke-width="0.8"/><circle cx="162.1" cy="18.6" r="2" fill="#2f9df0" stroke="#fff" stroke-width="0.8"/><circle cx="167.9" cy="24.2" r="2" fill="#2f9df0" stroke="#fff" stroke-width="0.8"/><circle cx="173.7" cy="23" r="2" fill="#2f9df0" stroke="#fff" stroke-width="0.8"/><circle cx="179.5" cy="22.5" r="2" fill="#2f9df0" stroke="#fff" stroke-width="0.8"/><circle cx="185.4" cy="24.7" r="2" fill="#2f9df0" stroke="#fff" stroke-width="0.8"/><circle cx="191.2" cy="23.6" r="2" fill="#2f9df0" stroke="#fff" stroke-width="0.8"/><circle cx="197" cy="15.8" r="2" fill="#2f9df0" stroke="#fff" stroke-width="0.8"/><circle cx="202.9" cy="19.1" r="2" fill="#2f9df0" stroke="#fff" stroke-width="0.8"/><circle cx="208.7" cy="16.9" r="2" fill="#2f9df0" stroke="#fff" stroke-width="0.8"/><circle cx="214.5" cy="12.5" r="2" fill="#2f9df0" stroke="#fff" stroke-width="0.8"/><circle cx="220.3" cy="11.9" r="2" fill="#2f9df0" stroke="#fff" stroke-width="0.8"/><circle cx="226.2" cy="10.8" r="2" fill="#2f9df0" stroke="#fff" stroke-width="0.8"/><circle cx="232" cy="17.5" r="2" fill="#2f9df0" stroke="#fff" stroke-width="0.8"/>
        <text x="28" y="116" text-anchor="middle" font-size="5.5" fill="#9aa">Jan 23</text><text x="75" y="116" text-anchor="middle" font-size="5.5" fill="#9aa">Sep 23</text><text x="121" y="116" text-anchor="middle" font-size="5.5" fill="#9aa">May 24</text><text x="168" y="116" text-anchor="middle" font-size="5.5" fill="#9aa">Jan 25</text><text x="215" y="116" text-anchor="middle" font-size="5.5" fill="#9aa">Sep 25</text><text x="232" y="116" text-anchor="middle" font-size="5.5" fill="#9aa">Dec 25</text>
        <rect x="28" y="109" width="7" height="4" fill="#2f9df0"/>
        <text x="37" y="112" font-size="5.5" fill="#555">Consultations</text>
    </svg>