<svg xmlns="http://www.w3.org/2000/svg" viewBox="0 0 240 120" width="240" height="120">
        <path d="M60 32 L60 12 A46 46 0 0 1 81.4 17.28 L72.1 34.99 A26 26 0 0 0 60 32Z" fill="#2f9df0" stroke="#fff" stroke-width="1"/><text x="67.5" y="29.6"
                text-anchor="middle" font-size="6" fill="#fff" font-weight="bold">8%</text><path d="M72.1 34.99 L81.4 17.28 A46 46 0 0 1 96.45 29.95 L80.6 42.14 A26 26 0 0 0 72.1 34.99Z" fill="#0f2a6d" stroke="#fff" stroke-width="1"/><text x="80.1" y="36.1"
                text-anchor="middle" font-size="6" fill="#fff" font-weight="bold">7%</text><path d="M80.6 42.14 L96.45 29.95 A46 46 0 0 1 104.79 47.51 L85.32 52.07 A26 26 0 0 0 80.6 42.14Z" fill="#1728d9" stroke="#fff" stroke-width="1"/><text x="88.3" y="46.6"
                text-anchor="middle" font-size="6" fill="#fff" font-weight="bold">7%</text><path d="M85.32 52.07 L104.79 47.51 A46 46 0 0 1 105.92 60.64 L85.96 59.49 A26 26 0 0 0 85.32 52.07Z" fill="#22c55e" stroke="#fff" stroke-width="1"/><path d="M85.96 59.49 L105.92 60.64 A46 46 0 0 1 103.37 73.32 L84.51 66.66 A26 26 0 0 0 85.96 59.49Z" fill="#f59e0b" stroke="#fff" stroke-width="1"/><path d="M84.51 66.66 L103.37 73.32 A46 46 0 1 1 60 12 L60 32 A26 26 0 1 0 84.51 66.66Z" fill="#ef4444" stroke="#fff" stroke-width="1"/><text x="34.5" y="78.1"
                text-anchor="middle" font-size="6" fill="#fff" font-weight="bold">70%</text>
        <text x="60" y="53" text-anchor="middle" font-size="6.5" fill="#777">Total</text>
        <text x="60" y="66" text-anchor="middle" font-size="11" font-weight="bold" fill="#0f2a6d">4,986</text>
        <rect x="130" y="16" width="7" height="7" fill="#2f9df0"/><text x="140" y="22" font-size="6" fill="#333">Mange (384)</text><rect x="130" y="30" width="7" height="7" fill="#0f2a6d"/><text x="140" y="36" font-size="6" fill="#333">Intestinal Parasites (342)</text><rect x="130" y="44" width="7" height="7" fill="#1728d9"/><text x="140" y="50" font-size="6" fill="#333">Gastroenteritis (338)</text><rect x="130" y="58" width="7" height="7" fill="#22c55e"/><text x="140" y="64" font-size="6" fill="#333">Ear Mites (228)</text><rect x="130" y="72" width="7" height="7" fill="#f59e0b"/><text x="140" y="78" font-size="6" fill="#333">Dental Disease (224)</text><rect x="130" y="86" width="7" height="7" fill="#ef4444"/><text x="140" y="92" font-size="6" fill="#333">Others (3,470)</text>
    </svg>