<svg xmlns="http://www.w3.org/2000/svg" viewBox="0 0 240 120" width="240" height="120">
        <path d="M60 32 L60 12 A46 46 0 1 1 16.25 43.79 L35.27 49.97 A26 26 0 1 0 60 32Z" fill="#2f9df0" stroke="#fff" stroke-width="1"/><text x="78.4" y="85.3"
                text-anchor="middle" font-size="6" fill="#fff" font-weight="bold">80%</text><path d="M35.27 49.97 L16.25 43.79 A46 46 0 0 1 60 12 L60 32 A26 26 0 0 0 35.27 49.97Z" fill="#0f2a6d" stroke="#fff" stroke-width="1"/><text x="41.6" y="34.7"
                text-anchor="middle" font-size="6" fill="#fff" font-weight="bold">20%</text>
        <text x="60" y="53" text-anchor="middle" font-size="6.5" fill="#777">Total</text>
        <text x="60" y="66" text-anchor="middle" font-size="11" font-weight="bold" fill="#0f2a6d">5</text>
        <rect x="130" y="16" width="7" height="7" fill="#2f9df0"/><text x="140" y="22" font-size="6" fill="#333">Unknown (4)</text><rect x="130" y="30" width="7" height="7" fill="#0f2a6d"/><text x="140" y="36" font-size="6" fill="#333">NA (1)</text>
    </svg>