<svg xmlns="http://www.w3.org/2000/svg" viewBox="0 0 240 120" width="240" height="120">
        <path d="M60 32 L60 12 A46 46 0 1 1 20.31 34.75 L37.57 44.86 A26 26 0 1 0 60 32Z" fill="#2f9df0" stroke="#fff" stroke-width="1"/><text x="75.6" y="87.1"
                text-anchor="middle" font-size="6" fill="#fff" font-weight="bold">83%</text><path d="M37.57 44.86 L20.31 34.75 A46 46 0 0 1 60 12 L60 32 A26 26 0 0 0 37.57 44.86Z" fill="#0f2a6d" stroke="#fff" stroke-width="1"/><text x="44.4" y="32.9"
                text-anchor="middle" font-size="6" fill="#fff" font-weight="bold">17%</text>
        <text x="60" y="53" text-anchor="middle" font-size="6.5" fill="#777">Total</text>
        <text x="60" y="66" text-anchor="middle" font-size="11" font-weight="bold" fill="#0f2a6d">57,625</text>
        <rect x="130" y="16" width="7" height="7" fill="#2f9df0"/><text x="140" y="22" font-size="6" fill="#333">Dogs (48,079)</text><rect x="130" y="30" width="7" height="7" fill="#0f2a6d"/><text x="140" y="36" font-size="6" fill="#333">Cats (9,546)</text>
    </svg>