<svg xmlns="http://www.w3.org/2000/svg" width="320" height="140">
        <path d="M 80 40 L 80 15 A 55 55 0 1 1 27.69 53 L 51.47 60.73 A 30 30 0 1 0 80 40 Z" fill="#2f9df0" stroke="#fff" stroke-width="1"/><text x="102.6" y="103.1"
                text-anchor="middle" font-size="6" fill="#fff" font-weight="bold">80%</text><path d="M 51.47 60.73 L 27.69 53 A 55 55 0 0 1 80 15 L 80 40 A 30 30 0 0 0 51.47 60.73 Z" fill="#0f2a6d" stroke="#fff" stroke-width="1"/><text x="57.4" y="40.9"
                text-anchor="middle" font-size="6" fill="#fff" font-weight="bold">20%</text>
        <text x="80" y="66"
        text-anchor="middle" font-size="7" fill="#555">Total</text>
        <text x="80" y="78"
        text-anchor="middle" font-size="10" font-weight="bold" fill="#0f2a6d">5</text>
        <rect x="170" y="20" width="8" height="8" fill="#2f9df0"/><text x="182" y="27" font-size="7" fill="#333">Unknown (4)</text><rect x="170" y="36" width="8" height="8" fill="#0f2a6d"/><text x="182" y="43" font-size="7" fill="#333">NA (1)</text>
    </svg>