<svg xmlns="http://www.w3.org/2000/svg" viewBox="0 0 240 120" width="240" height="120">
        <line x1="28" y1="96" x2="232" y2="96" stroke="#edf2f9" stroke-width="0.5"/><text x="25" y="98" text-anchor="end" font-size="5.5" fill="#9aa">0</text><line x1="28" y1="74" x2="232" y2="74" stroke="#edf2f9" stroke-width="0.5"/><text x="25" y="76" text-anchor="end" font-size="5.5" fill="#9aa">119</text><line x1="28" y1="52" x2="232" y2="52" stroke="#edf2f9" stroke-width="0.5"/><text x="25" y="54" text-anchor="end" font-size="5.5" fill="#9aa">239</text><line x1="28" y1="30" x2="232" y2="30" stroke="#edf2f9" stroke-width="0.5"/><text x="25" y="32" text-anchor="end" font-size="5.5" fill="#9aa">358</text><line x1="28" y1="8" x2="232" y2="8" stroke="#edf2f9" stroke-width="0.5"/><text x="25" y="10" text-anchor="end" font-size="5.5" fill="#9aa">477</text>
        <polygon points="28,32.5 28,32.5 33.8,32.5 39.7,23.9 45.5,23.9 51.3,23.9 57.1,17.2 63,17.2 68.8,17.2 74.6,17.2 80.5,17.2 86.3,32.5 92.1,32.5 97.9,25.9 103.8,25.9 109.6,15.6 115.4,15.6 121.3,15.6 127.1,8 132.9,8 138.7,8 144.6,8 150.4,8 156.2,25.9 162.1,25.9 167.9,29.4 173.7,29.4 179.5,20.2 185.4,20.2 191.2,20.2 197,13 202.9,13 208.7,13 214.5,13 220.3,13 226.2,29.4 232,29.4 232,96 28,96" fill="#2f9df0" fill-opacity="0.08"/>
        <polyline points="28,32.5 33.8,32.5 39.7,23.9 45.5,23.9 51.3,23.9 57.1,17.2 63,17.2 68.8,17.2 74.6,17.2 80.5,17.2 86.3,32.5 92.1,32.5 97.9,25.9 103.8,25.9 109.6,15.6 115.4,15.6 121.3,15.6 127.1,8 132.9,8 138.7,8 144.6,8 150.4,8 156.2,25.9 162.1,25.9 167.9,29.4 173.7,29.4 179.5,20.2 185.4,20.2 191.2,20.2 197,13 202.9,13 208.7,13 214.5,13 220.3,13 226.2,29.4 232,29.4" fill="none" stroke="#2f9df0" stroke-width="1.6" stroke-linejoin="round"/>
        <circle cx="28" cy="32.5" r="2" fill="#2f9df0" stroke="#fff" stroke-width="0.8"/><circle cx="33.8" cy="32.5" r="2" fill="#2f9df0" stroke="#fff" stroke-width="0.8"/><circle cx="39.7" cy="23.9" r="2" fill="#2f9df0" stroke="#fff" stroke-width="0.8"/><circle cx="45.5" cy="23.9" r="2" fill="#2f9df0" stroke="#fff" stroke-width="0.8"/><circle cx="51.3" cy="23.9" r="2" fill="#2f9df0" stroke="#fff" stroke-width="0.8"/><circle cx="57.1" cy="17.2" r="2" fill="#2f9df0" stroke="#fff" stroke-width="0.8"/><circle cx="63" cy="17.2" r="2" fill="#2f9df0" stroke="#fff" stroke-width="0.8"/><circle cx="68.8" cy="17.2" r="2" fill="#2f9df0" stroke="#fff" stroke-width="0.8"/><circle cx="74.6" cy="17.2" r="2" fill="#2f9df0" stroke="#fff" stroke-width="0.8"/><circle cx="80.5" cy="17.2" r="2" fill="#2f9df0" stroke="#fff" stroke-width="0.8"/><circle cx="86.3" cy="32.5" r="2" fill="#2f9df0" stroke="#fff" stroke-width="0.8"/><circle cx="92.1" cy="32.5" r="2" fill="#2f9df0" stroke="#fff" stroke-width="0.8"/><circle cx="97.9" cy="25.9" r="2" fill="#2f9df0" stroke="#fff" stroke-width="0.8"/><circle cx="103.8" cy="25.9" r="2" fill="#2f9df0" stroke="#fff" stroke-width="0.8"/><circle cx="109.6" cy="15.6" r="2" fill="#2f9df0" stroke="#fff" stroke-width="0.8"/><circle cx="115.4" cy="15.6" r="2" fill="#2f9df0" stroke="#fff" stroke-width="0.8"/><circle cx="121.3" cy="15.6" r="2" fill="#2f9df0" stroke="#fff" stroke-width="0.8"/><circle cx="127.1" cy="8" r="2" fill="#2f9df0" stroke="#fff" stroke-width="0.8"/><circle cx="132.9" cy="8" r="2" fill="#2f9df0" stroke="#fff" stroke-width="0.8"/><circle cx="138.7" cy="8" r="2" fill="#2f9df0" stroke="#fff" stroke-width="0.8"/><circle cx="144.6" cy="8" r="2" fill="#2f9df0" stroke="#fff" stroke-width="0.8"/><circle cx="150.4" cy="8" r="2" fill="#2f9df0" stroke="#fff" stroke-width="0.8"/><circle cx="156.2" cy="25.9" r="2" fill="#2f9df0" stroke="#fff" stroke-width="0.8"/><circle cx="162.1" cy="25.9" r="2" fill="#2f9df0" stroke="#fff" stroke-width="0.8"/><circle cx="167.9" cy="29.4" r="2" fill="#2f9df0" stroke="#fff" stroke-width="0.8"/><circle cx="173.7" cy="29.4" r="2" fill="#2f9df0" stroke="#fff" stroke-width="0.8"/><circle cx="179.5" cy="20.2" r="2" fill="#2f9df0" stroke="#fff" stroke-width="0.8"/><circle cx="185.4" cy="20.2" r="2" fill="#2f9df0" stroke="#fff" stroke-width="0.8"/><circle cx="191.2" cy="20.2" r="2" fill="#2f9df0" stroke="#fff" stroke-width="0.8"/><circle cx="197" cy="13" r="2" fill="#2f9df0" stroke="#fff" stroke-width="0.8"/><circle cx="202.9" cy="13" r="2" fill="#2f9df0" stroke="#fff" stroke-width="0.8"/><circle cx="208.7" cy="13" r="2" fill="#2f9df0" stroke="#fff" stroke-width="0.8"/><circle cx="214.5" cy="13" r="2" fill="#2f9df0" stroke="#fff" stroke-width="0.8"/><circle cx="220.3" cy="13" r="2" fill="#2f9df0" stroke="#fff" stroke-width="0.8"/><circle cx="226.2" cy="29.4" r="2" fill="#2f9df0" stroke="#fff" stroke-width="0.8"/><circle cx="232" cy="29.4" r="2" fill="#2f9df0" stroke="#fff" stroke-width="0.8"/>
        <text x="28" y="116" text-anchor="middle" font-size="5.5" fill="#9aa">Jan 23</text><text x="75" y="116" text-anchor="middle" font-size="5.5" fill="#9aa">Sep 23</text><text x="121" y="116" text-anchor="middle" font-size="5.5" fill="#9aa">May 24</text><text x="168" y="116" text-anchor="middle" font-size="5.5" fill="#9aa">Jan 25</text><text x="215" y="116" text-anchor="middle" font-size="5.5" fill="#9aa">Sep 25</text><text x="232" y="116" text-anchor="middle" font-size="5.5" fill="#9aa">Dec 25</text>
        <rect x="28" y="109" width="7" height="4" fill="#2f9df0"/>
        <text x="37" y="112" font-size="5.5" fill="#555">Total Cases</text>
    </svg>